# 3ds Max Wavefront OBJ Exporter v0.97b - (c)2007 guruware
# File Created: 04.03.2015 17:29:05

mtllib BigSchool_Level1.mtl

#
# object Box188
#

v  -191.9594 -169.0578 -674.9216
v  191.9595 -169.0578 -674.9215
v  191.9595 124.1794 -674.9215
v  -191.9594 124.1794 -674.9216
v  191.9594 -169.0579 -163.0296
v  191.9594 215.5011 -163.0296
v  -191.9595 -169.0579 -163.0297
v  -191.9595 215.5011 -163.0296
v  221.6098 119.8498 -697.1259
v  -221.6100 119.8498 -697.1261
v  221.6098 219.3166 -140.7283
v  -221.6101 219.3161 -140.7311
v  221.6098 151.3848 -702.5210
v  -221.6100 151.3849 -702.5212
v  221.6098 250.8517 -146.1235
v  -221.6101 250.8512 -146.1263
v  -195.4769 -169.0579 -158.3398
v  -195.4768 -169.0578 -679.6115
v  195.4768 -169.0579 -158.3398
v  195.4769 -169.0578 -679.6115
v  -195.4769 -250.8517 -158.3398
v  -195.4768 -250.8516 -679.6115
v  195.4768 -250.8517 -158.3398
v  195.4769 -250.8516 -679.6115
# 24 vertices

vn 0.0000 0.0000 -1.0000
vn 1.0000 0.0000 0.0000
vn -0.0000 -0.0000 1.0000
vn -1.0000 0.0000 -0.0000
vn -0.0000 -0.9815 0.1914
vn -0.0088 -0.9844 0.1758
vn 0.0000 -0.9857 0.1686
vn 0.0088 -0.9844 0.1758
vn 0.0000 -0.1686 -0.9857
vn -0.0000 0.1686 0.9857
vn 0.0000 0.9844 -0.1760
vn -0.0000 1.0000 0.0000
vn 0.0000 -1.0000 -0.0000
# 13 vertex normals

vt 0.0000 0.0000 0.0000
vt 1.0000 0.0000 0.0000
vt 1.0000 1.0000 0.0000
vt 0.0000 1.0000 0.0000
# 4 texture coords

g Box188
usemtl Material__25
s 8
f 4/4/1 3/3/1 2/2/1 1/1/1 
s 16
f 3/4/2 6/3/2 5/2/2 2/1/2 
s 32
f 6/4/3 8/3/3 7/2/3 5/1/3 
s 64
f 8/4/4 4/3/4 1/2/4 7/1/4 
s off
f 10/4/5 9/3/5 3/3/5 4/4/5 
f 9/4/6 11/3/6 6/3/6 3/4/6 
f 11/4/7 12/3/7 8/3/7 6/4/7 
f 12/4/8 10/3/8 4/3/8 8/4/8 
f 14/4/9 13/3/9 9/3/9 10/4/9 
f 13/4/2 15/3/2 11/3/2 9/4/2 
f 15/4/10 16/3/10 12/3/10 11/4/10 
f 16/4/4 14/3/4 10/3/4 12/4/4 
f 13/3/11 14/3/11 16/3/11 15/3/11 
f 18/2/12 17/1/12 7/1/12 1/2/12 
f 17/2/12 19/1/12 5/1/12 7/2/12 
f 19/2/12 20/1/12 2/1/12 5/2/12 
f 20/2/12 18/1/12 1/1/12 2/2/12 
f 22/2/4 21/1/4 17/1/4 18/2/4 
f 21/2/3 23/1/3 19/1/3 17/2/3 
f 23/2/2 24/1/2 20/1/2 19/2/2 
f 24/2/1 22/1/1 18/1/1 20/2/1 
f 21/1/13 22/1/13 24/1/13 23/1/13 
# 22 polygons

#
# object Box185
#

v  -129.6465 -248.8080 163.7578
v  58.8164 -248.8080 163.7578
v  58.8164 -56.5979 163.7578
v  -129.6465 -56.5979 163.7578
v  58.8164 -248.8081 -163.1020
v  -129.6465 -248.8081 -163.1020
v  -129.6465 -56.5979 -163.1020
v  58.8164 -56.5979 -163.1020
v  -129.6465 -248.8081 113.7803
v  58.8164 -248.8081 113.7802
v  -129.6465 -56.5979 113.7803
v  -129.6465 -22.9578 113.7802
v  -129.6465 -22.9578 163.7578
v  58.8164 -22.9578 163.7578
v  58.8164 -22.9578 113.7802
v  58.8164 -56.5979 113.7802
v  58.8164 -22.9579 -163.1020
v  -129.6465 -22.9579 -163.1020
v  -129.6465 -248.8081 -107.4307
v  58.8164 -248.8081 -107.4307
v  -129.6465 -56.5979 -107.4307
v  -129.6465 -22.9579 -107.4307
v  58.8164 -22.9579 -107.4307
v  58.8164 -56.5979 -107.4307
v  58.8164 -248.8081 102.8047
v  -129.6465 -248.8081 102.8047
v  -129.6465 -22.9578 102.8047
v  58.8164 -22.9578 102.8046
v  58.8164 -56.5979 102.8046
v  -129.6465 -56.5979 102.8047
v  -129.6465 -248.8081 -96.8404
v  -129.6465 -67.2157 -96.8128
v  -129.6465 -67.2157 103.1624
v  -129.6465 -67.2157 93.2404
v  58.8164 -248.8081 -96.8405
v  -129.6465 -22.9578 -96.8405
v  58.8164 -22.9578 -96.8405
v  58.8164 -56.5979 -96.8405
v  -129.6465 -56.5979 -96.8405
v  -129.6465 -67.2157 -87.2393
# 40 vertices

vn 0.0000 0.0000 1.0000
vn 0.0000 0.0000 -1.0000
vn 0.0000 -1.0000 -0.0000
vn -1.0000 0.0000 -0.0000
vn 0.0000 1.0000 -0.0000
vn 1.0000 0.0000 -0.0000
# 6 vertex normals

vt 0.0000 0.0000 0.0000
vt 1.0000 0.0000 0.0000
vt 1.0000 0.8511 0.0000
vt 0.0000 0.8511 0.0000
vt 1.0000 0.1529 0.0000
vt 0.0000 0.1529 0.0000
vt 0.8511 0.0000 0.0000
vt 0.8511 0.1529 0.0000
vt 0.1489 0.1529 0.0000
vt 0.1489 0.0000 0.0000
vt 1.0000 1.0000 0.0000
vt 0.0000 1.0000 0.0000
vt 1.0000 0.8297 0.0000
vt 0.0000 0.8297 0.0000
vt 0.8511 0.8297 0.0000
vt 0.8511 1.0000 0.0000
vt 0.1489 0.8297 0.0000
vt 0.1489 1.0000 0.0000
vt 0.0000 0.1865 0.0000
vt 1.0000 0.1865 0.0000
vt 0.1489 0.1865 0.0000
vt 0.8511 0.1865 0.0000
vt 0.0000 0.7973 0.0000
vt 1.0000 0.7973 0.0000
vt 0.1489 0.7973 0.0000
vt 0.8511 0.7973 0.0000
# 26 texture coords

g Box185
usemtl Material__25
s 2
f 25/5/14 26/6/14 27/7/14 28/8/14 
s 4
f 29/5/15 30/6/15 31/7/15 32/8/15 
s 8
f 26/5/16 25/6/16 33/9/16 34/10/16 
s 16
f 25/5/17 28/11/17 35/12/17 33/10/17 
s 32
f 36/10/18 37/5/18 38/6/18 39/9/18 
s 64
f 40/13/19 39/10/19 38/5/19 27/14/19 
s 2
f 28/8/14 27/7/14 38/15/14 37/16/14 
s 4
f 41/16/15 32/8/15 31/7/15 42/15/15 
s 16
f 37/6/17 36/9/17 35/12/17 28/11/17 
s 64
f 40/13/19 27/14/19 26/6/19 34/9/19 
s 8
f 43/17/16 30/15/16 29/16/16 44/18/16 
s 16
f 43/18/17 45/19/17 31/20/17 30/16/17 
s 32
f 42/16/18 46/18/18 47/17/18 41/15/18 
s 64
f 47/18/19 48/21/19 32/22/19 41/16/19 
s 16
f 45/19/17 46/17/17 42/15/17 31/20/17 
s 64
f 29/15/19 32/22/19 48/21/19 44/17/19 
s 8
f 49/23/16 34/10/16 33/9/16 50/24/16 
s 32
f 51/23/18 36/10/18 39/9/18 52/24/18 
s 64
f 53/25/19 52/23/19 39/10/19 40/13/19 
s 16
f 35/12/17 36/9/17 51/24/17 54/26/17 
s 64
f 34/9/19 49/24/19 53/25/19 40/13/19 
s off
f 55/18/17 56/19/17 45/19/17 43/18/17 
f 50/10/17 33/10/17 35/12/17 57/12/17 
f 54/26/17 58/26/17 57/12/17 35/12/17 
s 8
f 43/17/16 44/18/16 59/27/16 55/28/16 
s 32
f 46/18/18 60/27/18 61/28/18 47/17/18 
s 64
f 61/27/19 62/29/19 48/21/19 47/18/19 
s 16
f 46/17/17 45/19/17 63/30/17 60/28/17 
s 64
f 44/17/19 48/21/19 62/29/19 59/28/19 
s off
f 56/19/17 64/30/17 63/30/17 45/19/17 
s 8
f 59/27/16 49/23/16 50/24/16 55/28/16 
s 32
f 51/23/18 52/24/18 61/28/18 60/27/18 
s 64
f 53/25/19 62/29/19 61/27/19 52/23/19 
s 16
f 51/24/17 60/28/17 63/30/17 54/26/17 
s 64
f 49/24/19 59/28/19 62/29/19 53/25/19 
s off
f 63/30/17 64/30/17 58/26/17 54/26/17 
# 36 polygons

#
# object Box184
#

v  -129.6470 -248.8080 -0.1214
v  -129.6470 -248.8080 -96.8130
v  -129.6470 -67.2157 -96.8130
v  -129.6470 -67.2157 -0.1214
v  -135.5764 -242.0084 -90.0134
v  -135.5764 -242.0084 -0.1214
v  -135.5764 -74.0153 -0.1214
v  -135.5764 -74.0153 -90.0134
v  -138.5764 -248.8080 -0.1214
v  -138.5764 -248.8080 -96.8130
v  -138.5764 -248.8080 102.8046
v  -129.6470 -248.8080 102.8046
v  -129.6470 -67.2157 102.8046
v  -138.5764 -67.2157 102.8046
v  -138.5764 -67.2157 -0.1214
v  -138.5764 -67.2157 -96.8130
v  -135.5764 -242.0084 96.0050
v  -135.5764 -74.0153 96.0050
v  -138.5764 -242.0084 -90.0134
v  -138.5764 -242.0084 -0.1214
v  -138.5764 -242.0084 96.0050
v  -138.5764 -74.0153 96.0050
v  -138.5764 -74.0153 -0.1214
v  -138.5764 -74.0153 -90.0134
# 24 vertices

vn 1.0000 0.0000 -0.0000
vn -1.0000 0.0000 -0.0000
vn 0.0000 -1.0000 -0.0000
vn 0.0000 0.0000 1.0000
vn 0.0000 1.0000 -0.0000
vn 0.0000 0.0000 -1.0000
# 6 vertex normals

vt 0.5156 0.0000 0.0000
vt 1.0000 0.0000 0.0000
vt 1.0000 1.0000 0.0000
vt 0.5156 1.0000 0.0000
vt 0.0000 0.0000 0.0000
vt 0.4844 0.0000 0.0000
vt 0.4844 1.0000 0.0000
vt 0.0000 1.0000 0.0000
# 8 texture coords

g Box184
usemtl Material__25
s 2
f 65/31/20 66/32/20 67/33/20 68/34/20 
s 4
f 69/35/21 70/36/21 71/37/21 72/38/21 
s 8
f 66/35/22 65/36/22 73/37/22 74/38/22 
s 16
f 75/38/23 76/35/23 77/32/23 78/33/23 
s 32
f 79/34/24 78/38/24 77/35/24 68/31/24 
s 64
f 67/35/25 66/32/25 74/33/25 80/38/25 
s 2
f 77/38/20 76/35/20 65/31/20 68/34/20 
s 4
f 71/37/21 70/36/21 81/32/21 82/33/21 
s 8
f 65/36/22 76/32/22 75/33/22 73/37/22 
s 32
f 79/34/24 68/31/24 67/32/24 80/33/24 
s off
f 83/35/21 74/35/21 73/36/21 84/36/21 
f 85/32/21 84/36/21 73/36/21 75/32/21 
f 85/32/21 75/32/21 78/33/21 86/33/21 
f 78/33/21 79/37/21 87/37/21 86/33/21 
f 87/37/21 79/37/21 80/38/21 88/38/21 
f 80/38/21 74/35/21 83/35/21 88/38/21 
f 70/36/24 69/35/24 83/35/24 84/36/24 
f 81/32/24 70/36/24 84/36/24 85/32/24 
f 86/33/25 82/33/25 81/32/25 85/32/25 
f 86/33/22 87/37/22 71/37/22 82/33/22 
f 71/37/22 87/37/22 88/38/22 72/38/22 
f 83/35/23 69/35/23 72/38/23 88/38/23 
# 22 polygons

#
# object Box187
#

v  -191.9595 -169.0579 674.9215
v  191.9595 -169.0579 674.9215
v  191.9595 124.1794 674.9215
v  -191.9595 124.1794 674.9215
v  191.9595 -169.0579 163.0296
v  191.9595 215.5011 163.0296
v  -191.9595 -169.0579 163.0296
v  -191.9595 215.5011 163.0296
v  221.6098 119.8497 697.1259
v  -221.6100 119.8497 697.1260
v  221.6098 219.3166 140.7283
v  -221.6100 219.3161 140.7311
v  221.6098 151.3848 702.5211
v  -221.6100 151.3848 702.5212
v  221.6098 250.8517 146.1235
v  -221.6100 250.8512 146.1263
v  -195.4769 -169.0579 158.3397
v  -195.4769 -169.0579 679.6114
v  195.4769 -169.0579 158.3397
v  195.4769 -169.0579 679.6114
v  -195.4769 -250.8517 158.3397
v  -195.4769 -250.8517 679.6114
v  195.4769 -250.8517 158.3397
v  195.4769 -250.8517 679.6114
# 24 vertices

vn 0.0000 0.0000 1.0000
vn 1.0000 0.0000 -0.0000
vn 0.0000 0.0000 -1.0000
vn -1.0000 0.0000 -0.0000
vn -0.0000 -0.9815 -0.1914
vn -0.0088 -0.9844 -0.1758
vn 0.0000 -0.9857 -0.1686
vn 0.0088 -0.9844 -0.1758
vn 0.0000 -0.1686 0.9857
vn -0.0000 0.1686 -0.9857
vn 0.0000 0.9844 0.1760
vn 0.0000 1.0000 -0.0000
vn 0.0000 -1.0000 -0.0000
# 13 vertex normals

vt 0.0000 0.0000 0.0000
vt 1.0000 0.0000 0.0000
vt 1.0000 1.0000 0.0000
vt 0.0000 1.0000 0.0000
# 4 texture coords

g Box187
usemtl Material__25
s 8
f 89/39/26 90/40/26 91/41/26 92/42/26 
s 16
f 90/39/27 93/40/27 94/41/27 91/42/27 
s 32
f 93/39/28 95/40/28 96/41/28 94/42/28 
s 64
f 95/39/29 89/40/29 92/41/29 96/42/29 
s off
f 92/42/30 91/41/30 97/41/30 98/42/30 
f 91/42/31 94/41/31 99/41/31 97/42/31 
f 94/42/32 96/41/32 100/41/32 99/42/32 
f 96/42/33 92/41/33 98/41/33 100/42/33 
f 98/42/34 97/41/34 101/41/34 102/42/34 
f 97/42/27 99/41/27 103/41/27 101/42/27 
f 99/42/35 100/41/35 104/41/35 103/42/35 
f 100/42/29 98/41/29 102/41/29 104/42/29 
f 103/41/36 104/41/36 102/41/36 101/41/36 
f 89/40/37 95/39/37 105/39/37 106/40/37 
f 95/40/37 93/39/37 107/39/37 105/40/37 
f 93/40/37 90/39/37 108/39/37 107/40/37 
f 90/40/37 89/39/37 106/39/37 108/40/37 
f 106/40/29 105/39/29 109/39/29 110/40/29 
f 105/40/28 107/39/28 111/39/28 109/40/28 
f 107/40/27 108/39/27 112/39/27 111/40/27 
f 108/40/26 106/39/26 110/39/26 112/40/26 
f 111/39/38 112/39/38 110/39/38 109/39/38 
# 22 polygons

