# 3ds Max Wavefront OBJ Exporter v0.97b - (c)2007 guruware
# File Created: 04.03.2015 16:41:00

mtllib CommunityCentre_Level1.mtl

#
# object Box004
#

v  52.0761 -310.2533 362.4204
v  601.8948 -310.2533 362.4204
v  601.8948 -229.6477 362.4204
v  52.0761 -229.6477 362.4204
v  601.8948 -310.2533 -362.4204
v  52.0761 -310.2533 -362.4204
v  52.0760 -229.6477 -362.4204
v  601.8948 -229.6477 -362.4204
v  27.3242 70.2561 387.1724
v  27.3242 17.7494 387.1724
v  626.6467 17.7494 387.1724
v  626.6467 70.2561 387.1724
v  626.6467 70.2561 -387.1724
v  626.6467 17.7494 -387.1724
v  27.3242 17.7494 -387.1724
v  27.3242 70.2561 -387.1724
v  64.4520 17.7494 350.0444
v  589.5189 17.7494 350.0444
v  589.5189 17.7494 -350.0444
v  64.4520 17.7494 -350.0444
v  589.5189 -229.6477 350.0444
v  64.4520 -229.6477 350.0444
v  64.4520 -229.6477 -350.0444
v  589.5189 -229.6477 -350.0444
v  52.0761 -310.2533 -117.6372
v  52.0760 -229.6477 -117.6372
v  64.4520 -229.6477 -113.6201
v  52.0760 -310.2533 246.3691
v  601.8948 -310.2533 -106.8401
v  601.8948 -310.2533 27.3308
v  601.8948 -310.2533 41.2036
v  601.8948 -310.2533 172.2903
v  64.4520 17.7494 237.9561
v  64.4520 -229.6477 237.9561
v  589.5189 -229.6477 237.9561
v  589.5189 17.7494 237.9561
v  589.5189 -229.6477 -113.6201
v  601.8948 -229.6477 -117.6372
v  601.8948 -310.2533 -117.6372
v  64.4520 17.7494 -113.6201
v  27.3242 17.7494 -125.6714
v  626.6467 17.7494 -125.6714
v  589.5189 17.7494 -113.6201
v  27.3242 70.2561 -125.6714
v  626.6467 70.2561 -125.6714
v  601.8948 -229.6477 246.3691
v  601.8948 -310.2533 246.3691
v  626.6467 17.7494 263.1951
v  27.3242 70.2561 263.1951
v  626.6467 70.2561 263.1953
v  52.0760 -229.6477 246.3691
v  27.3242 17.7494 263.1953
v  -151.3986 70.2561 -125.6714
v  -151.3986 70.2561 263.1951
v  -126.6467 -310.2533 246.3691
v  -126.6466 -310.2533 -117.6372
v  -126.6467 -229.6477 -117.6372
v  -114.2708 -229.6477 -113.6201
v  -114.2708 17.7494 -113.6201
v  -151.3986 17.7494 -125.6714
v  -114.2708 17.7494 237.9561
v  -114.2708 -229.6477 237.9561
v  -126.6467 -229.6477 246.3691
v  -151.3986 17.7494 263.1953
v  -626.6467 -301.5659 246.3691
v  -626.6467 -301.5659 -117.6372
v  -626.6466 -310.2537 -117.6372
v  -626.6467 -310.2537 246.3691
# 68 vertices

vn 0.0000 0.0000 1.0000
vn 0.0000 0.0000 -1.0000
vn 0.0000 -1.0000 -0.0000
vn 0.0000 1.0000 -0.0000
vn -1.0000 -0.0000 -0.0000
vn -1.0000 0.0000 -0.0000
vn 1.0000 0.0000 -0.0000
vn 1.0000 0.0000 0.0000
vn -1.0000 0.0000 0.0000
vn -0.0000 -1.0000 -0.0000
vn 0.0000 -1.0000 0.0000
vn -0.1294 0.9916 -0.0000
# 12 vertex normals

vt 0.0000 0.0000 0.0000
vt 1.0000 0.0000 0.0000
vt 1.0000 0.2843 0.0000
vt 0.0000 0.2843 0.0000
vt 1.0000 1.0000 0.0000
vt 0.0000 1.0000 0.0000
vt 0.6474 0.0000 0.0000
vt 0.4288 0.2186 0.0000
vt 0.3561 0.3377 0.0000
vt 0.5377 0.0000 0.0000
vt 0.6623 0.2843 0.0000
vt 0.4288 0.0000 0.0000
vt 0.1037 0.0000 0.0000
vt 0.4623 0.0000 0.0000
vt 0.4432 0.0000 0.0000
vt 0.2623 0.0000 0.0000
vt 0.0000 0.1601 0.0000
vt 0.1601 0.2843 0.0000
vt 1.0000 0.1601 0.0000
vt 0.3377 0.2843 0.0000
vt 0.4288 0.0960 0.0000
vt 0.6938 0.0960 0.0000
vt 0.0000 0.6623 0.0000
vt 0.0000 0.5122 0.0000
vt 0.0000 0.4432 0.0000
vt 1.0000 0.4623 0.0000
vt 1.0000 0.5248 0.0000
vt 1.0000 0.6623 0.0000
vt 0.8399 0.2843 0.0000
vt 0.1037 0.2388 0.0000
vt 0.9260 0.2388 0.0000
vt 1.0000 0.6178 0.0000
vt 0.0000 0.6474 0.0000
vt 0.0861 0.8399 0.0000
vt 0.1037 0.5437 0.0000
vt 0.0000 0.6147 0.0000
vt 1.0000 0.6474 0.0000
# 37 texture coords

g Box004
usemtl 01___Default
s off
f 1/1/1 2/2/1 3/3/1 4/4/1 
f 5/1/2 6/2/2 7/3/2 8/4/2 
f 9/1/1 10/1/1 11/2/1 12/2/1 
f 13/5/2 14/5/2 15/6/2 16/6/2 
f 10/1/3 17/1/3 18/2/3 11/2/3 
f 14/5/3 19/5/3 20/6/3 15/6/3 
f 3/3/4 21/3/4 22/4/4 4/4/4 
f 7/3/4 23/3/4 24/4/4 8/4/4 
s 1
f 20/6/2 19/5/2 24/4/2 23/3/2 
s 2
f 6/7/5 25/8/5 26/9/5 7/10/5 
s 4
f 23/3/4 7/10/4 26/9/4 27/11/4 
s off
f 25/12/3 6/7/3 5/1/3 28/13/3 
f 1/1/3 28/13/3 5/1/3 29/7/3 
f 1/1/3 29/7/3 30/14/3 31/15/3 
f 1/1/3 31/15/3 32/16/3 2/1/3 
s 8
f 33/17/6 34/18/6 22/4/6 17/1/6 
s 1
f 21/3/1 18/2/1 17/1/1 22/4/1 
s 2
f 21/3/7 35/3/7 36/19/7 18/2/7 
s 4
f 24/4/4 37/20/4 38/21/4 8/7/4 
s 8
f 8/7/7 38/21/7 39/22/7 5/10/7 
s 2
f 20/6/3 40/23/3 41/24/3 15/25/3 
s 8
f 19/5/3 14/26/3 42/27/3 43/28/3 
s off
f 16/6/4 44/23/4 45/28/4 13/5/4 
f 15/6/6 41/23/6 44/23/6 16/6/6 
f 13/5/7 45/28/7 42/28/7 14/5/7 
s 8
f 20/6/6 23/3/6 27/11/6 40/23/6 
s 2
f 24/3/8 19/5/8 43/28/8 37/3/8 
s 4
f 35/29/4 46/30/4 38/21/4 37/20/4 
s 8
f 46/30/7 47/31/7 39/22/7 38/21/7 
f 42/27/3 48/32/3 36/19/3 43/28/3 
s off
f 49/17/4 50/19/4 45/28/4 44/23/4 
f 50/19/7 48/19/7 42/28/7 45/28/7 
s 2
f 37/3/8 43/28/8 36/19/7 35/3/7 
f 1/33/9 4/6/9 51/34/9 28/35/9 
s 4
f 51/34/4 4/6/4 22/4/4 34/18/4 
f 21/3/4 3/4/4 46/30/4 35/29/4 
s 8
f 3/4/7 2/3/7 47/31/7 46/30/7 
s 2
f 17/1/10 10/33/10 52/36/10 33/17/10 
s 8
f 48/32/3 11/37/3 18/2/3 36/19/3 
s off
f 9/1/4 12/2/4 50/19/4 49/17/4 
f 10/1/6 9/1/6 49/17/6 52/17/6 
f 12/2/7 11/2/7 48/19/7 50/19/7 
f 49/17/4 44/23/4 53/23/4 54/17/4 
f 25/12/10 28/13/10 55/13/10 56/12/10 
f 26/9/2 25/8/2 56/8/2 57/9/2 
f 27/11/4 26/9/4 57/9/4 58/11/4 
f 40/23/2 27/11/2 58/11/2 59/23/2 
f 41/24/3 40/23/3 59/23/3 60/24/3 
f 44/23/2 41/23/2 60/23/2 53/23/2 
f 34/18/1 33/17/1 61/17/1 62/18/1 
f 28/35/1 51/34/1 63/34/1 55/35/1 
f 51/34/4 34/18/4 62/18/4 63/34/4 
f 33/17/3 52/36/3 64/36/3 61/17/3 
f 52/17/1 49/17/1 54/17/1 64/17/1 
f 54/17/6 53/23/6 60/23/6 64/36/6 
f 61/17/11 64/36/11 60/23/11 59/23/11 
f 58/11/6 62/18/6 61/17/6 59/23/6 
f 65/34/5 66/9/5 67/8/5 68/13/5 
f 62/18/4 58/11/4 57/9/4 63/34/4 
f 56/8/11 55/13/11 68/13/11 67/8/11 
f 55/13/1 63/34/1 65/34/1 68/13/1 
f 63/34/12 57/9/12 66/9/12 65/34/12 
f 57/9/2 56/8/2 67/8/2 66/9/2 
# 63 polygons

#
# object Box188
#

v  85.2697 70.2578 353.4314
v  74.6385 70.2578 353.4314
v  74.6385 70.2578 -353.9568
v  85.2697 70.2578 -353.9568
v  74.6385 310.2537 -353.9568
v  74.6385 310.2537 353.4314
v  85.2697 310.2537 353.4314
v  85.2697 310.2537 -353.9568
# 8 vertices

vn 0.0000 -1.0000 -0.0000
vn 0.0000 1.0000 -0.0000
vn 0.0000 0.0000 1.0000
vn 1.0000 0.0000 -0.0000
vn 0.0000 0.0000 -1.0000
vn -1.0000 0.0000 -0.0000
# 6 vertex normals

vt 0.0000 0.0000 0.0000
vt 1.0000 0.0000 0.0000
vt 1.0000 1.0000 0.0000
vt 0.0000 1.0000 0.0000
# 4 texture coords

g Box188
usemtl 01___Default
s 2
f 69/38/13 70/39/13 71/40/13 72/41/13 
s 4
f 73/41/14 74/38/14 75/39/14 76/40/14 
s 8
f 70/38/15 69/39/15 75/40/15 74/41/15 
s 16
f 69/38/16 72/39/16 76/40/16 75/41/16 
s 32
f 71/39/17 73/40/17 76/41/17 72/38/17 
s 64
f 71/38/18 70/39/18 74/40/18 73/41/18 
# 6 polygons

