# 3ds Max Wavefront OBJ Exporter v0.97b - (c)2007 guruware
# File Created: 04.03.2015 16:48:49

mtllib House_Level1.mtl

#
# object Box022
#

v  -200.9255 -203.1557 204.2261
v  -185.9159 -203.1557 204.2258
v  -185.9159 -176.6801 204.2258
v  -200.9255 -176.6801 204.2261
v  200.9254 -203.1557 -205.5540
v  179.7456 -203.1557 -205.5541
v  179.7456 -176.6801 -205.5541
v  200.9254 -176.6801 -205.5540
v  -200.9256 -203.1557 95.9358
v  -200.9256 -176.6801 95.9358
v  -200.9256 -176.6801 -205.5541
v  -200.9256 -203.1557 -205.5541
v  179.7456 -203.1557 95.9357
v  200.9255 -203.1557 95.9358
v  179.7455 -176.6801 204.2258
v  179.7455 -203.1557 204.2258
v  200.9254 -203.1557 204.2258
v  200.9254 -176.6801 204.2258
v  85.2313 -203.1557 -205.5541
v  85.2313 -176.6801 -205.5541
v  85.2313 -203.1557 95.9357
v  68.1879 -176.6801 -205.5541
v  68.1879 -203.1557 -205.5541
v  68.1879 -203.1557 95.9358
v  68.1879 -203.1557 204.2258
v  85.2313 -203.1557 204.2260
v  85.2313 -176.6801 204.2260
v  68.1879 -176.6801 204.2258
v  -24.7768 -176.6801 -205.5541
v  -24.7768 -203.1557 -205.5541
v  200.9255 173.3913 95.9358
v  200.9255 73.5500 95.9358
v  200.9254 73.5500 -205.5540
v  200.9254 173.3913 -205.5540
v  179.7456 73.5500 -205.5541
v  179.7456 173.3913 -205.5541
v  -200.9256 173.3913 95.9358
v  -200.9256 73.5500 95.9358
v  -200.9256 73.5500 196.2969
v  -200.9256 173.3913 196.2969
v  179.7455 73.5500 204.2258
v  200.9254 73.5500 204.2258
v  200.9254 173.3913 204.2258
v  179.7455 173.3913 204.2258
v  85.2313 73.5500 -205.5541
v  85.2313 173.3913 -205.5541
v  179.7456 73.5500 196.2970
v  179.7456 173.3913 196.2970
v  85.2313 173.3913 196.2970
v  85.2313 73.5500 196.2970
v  68.1879 173.3913 -205.5541
v  68.1879 73.5500 -205.5541
v  85.2313 73.5500 204.2260
v  85.2313 173.3913 204.2260
v  68.1879 173.3913 204.2258
v  68.1879 73.5500 204.2258
v  -200.9256 73.5500 -205.5541
v  -200.9256 173.3913 -205.5541
v  -185.9158 173.3913 -205.5541
v  -185.9158 73.5500 -205.5541
v  68.1880 56.5065 196.2970
v  68.1880 73.5500 196.2970
v  -24.7770 73.5500 196.2970
v  -24.7770 56.5065 196.2970
v  200.9255 56.5065 95.9358
v  200.9254 56.5065 -205.5540
v  179.7456 56.5065 -205.5541
v  -200.9256 56.5065 95.9358
v  -200.9256 56.5065 196.2969
v  200.9254 56.5065 204.2258
v  179.7455 56.5065 204.2258
v  85.2313 56.5065 -205.5541
v  179.7456 56.5065 196.2970
v  85.2313 56.5065 196.2970
v  68.1879 56.5065 -205.5541
v  68.1879 56.5065 204.2258
v  85.2313 56.5065 204.2260
v  -185.9158 56.5065 -205.5541
v  -200.9256 56.5065 -205.5541
v  200.9255 -48.0789 95.9358
v  200.9254 -48.0789 -205.5540
v  179.7456 -48.0789 -205.5541
v  -200.9256 -48.0789 95.9358
v  -200.9256 -48.0789 196.2969
v  179.7455 -48.0789 204.2258
v  200.9254 -48.0789 204.2258
v  85.2313 -48.0789 -205.5541
v  85.2313 -48.0789 196.2970
v  179.7456 -48.0789 196.2970
v  68.1879 -48.0789 -205.5541
v  68.1879 -48.0789 204.2258
v  85.2313 -48.0789 204.2260
v  -185.9158 -48.0789 -205.5541
v  -200.9256 -48.0789 -205.5541
v  -24.7770 -64.3477 196.2970
v  68.1880 -64.3477 196.2970
v  68.1880 -48.0789 196.2970
v  -24.7770 -48.0789 196.2970
v  200.9255 -64.3477 95.9358
v  200.9254 -64.3477 -205.5540
v  179.7456 -64.3477 -205.5541
v  -200.9256 -64.3477 95.9358
v  -200.9256 -64.3477 196.2969
v  179.7455 -64.3477 204.2258
v  200.9254 -64.3477 204.2258
v  85.2313 -64.3477 -205.5541
v  179.7456 -64.3477 196.2970
v  85.2313 -64.3477 196.2970
v  68.1879 -64.3477 -205.5541
v  68.1879 -64.3477 204.2258
v  85.2313 -64.3477 204.2260
v  -185.9158 -64.3477 -205.5541
v  -200.9256 -64.3477 -205.5541
v  -43.3699 -203.1557 95.9358
v  -43.3698 -203.1557 -205.5540
v  -24.7769 -203.1557 95.9357
v  -43.3699 -203.1557 204.2258
v  -24.7769 -203.1557 204.2260
v  -24.7769 -176.6801 204.2260
v  -43.3699 -176.6801 204.2258
v  -43.3698 -176.6801 -205.5540
v  -185.9158 -203.1557 -205.5541
v  -185.9158 -176.6801 -205.5541
v  -43.3698 73.5500 -205.5540
v  -43.3698 173.3913 -205.5540
v  -24.7768 173.3913 -205.5541
v  -24.7768 73.5500 -205.5541
v  -43.3700 56.5065 221.4126
v  -43.3700 73.5500 221.4126
v  -185.9158 73.5500 221.4126
v  -185.9158 56.5065 221.4126
v  -24.7768 56.5065 -205.5541
v  -43.3698 56.5065 -205.5540
v  -24.7768 -48.0789 -205.5541
v  -43.3698 -48.0789 -205.5540
v  -43.3700 -48.0789 221.4126
v  -185.9158 -48.0789 221.4126
v  -185.9158 -64.3477 221.4126
v  -43.3700 -64.3477 221.4126
v  -43.3698 -64.3477 -205.5540
v  -24.7768 -64.3477 -205.5541
v  -24.7769 73.5500 204.2260
v  -24.7769 173.3913 204.2260
v  -43.3699 173.3913 204.2258
v  -43.3699 73.5500 204.2258
v  -24.7769 56.5065 221.4126
v  -24.7769 73.5500 221.4126
v  -24.7769 -48.0789 204.2260
v  -24.7769 56.5065 204.2260
v  -43.3699 56.5065 204.2258
v  -43.3699 -48.0789 204.2258
v  -24.7769 -64.3477 221.4126
v  -24.7769 -48.0789 221.4126
v  -185.9158 -203.1557 95.9357
v  -185.9159 173.3913 204.2258
v  -200.9255 173.3913 204.2261
v  -200.9255 73.5500 204.2261
v  -185.9159 73.5500 204.2258
v  -200.9255 73.5500 221.4126
v  -200.9255 56.5065 221.4126
v  -185.9159 56.5065 204.2258
v  -200.9255 56.5065 204.2261
v  -200.9255 -48.0789 204.2261
v  -185.9159 -48.0789 204.2258
v  -200.9255 -64.3477 221.4126
v  -200.9255 -48.0789 221.4126
v  -185.9159 -64.3477 204.2258
v  -200.9255 -64.3477 204.2261
v  200.9255 -176.6801 95.9358
v  -200.9256 -176.6801 196.2969
v  -24.7769 -64.3477 204.2260
v  -43.3699 -64.3477 204.2258
v  -43.3699 73.5500 125.9730
v  -185.9158 73.5500 125.9730
v  -185.9159 73.5500 196.2969
v  -43.3699 73.5500 196.2970
v  -43.3699 173.3913 125.9730
v  -43.3699 173.3913 196.2970
v  -185.9159 173.3913 196.2969
v  -185.9158 173.3913 125.9730
v  -185.9158 -48.0789 125.9730
v  -185.9159 -48.0789 196.2969
v  -43.3699 -48.0789 196.2970
v  -43.3699 -48.0789 125.9730
v  -43.3699 56.5065 196.2970
v  -43.3699 56.5065 125.9730
v  -185.9159 56.5065 196.2969
v  -185.9158 56.5065 125.9730
v  -43.3699 -64.3477 125.9730
v  -43.3699 -64.3477 196.2970
v  -185.9159 -64.3477 196.2969
v  -185.9158 -64.3477 125.9730
v  -185.9158 -176.6801 125.9730
v  -185.9159 -176.6801 196.2969
v  -43.3699 -176.6801 125.9730
v  -43.3699 -176.6801 196.2970
v  179.7456 -203.1557 196.2970
v  200.9255 -203.1557 196.2969
v  200.9255 -176.6801 196.2969
v  200.9255 -64.3477 196.2969
v  200.9255 -48.0789 196.2969
v  200.9255 56.5065 196.2969
v  200.9255 73.5500 196.2969
v  200.9255 173.3913 196.2969
v  179.7456 -176.6801 196.2970
v  85.2313 -176.6801 196.2970
v  68.1880 173.3913 196.2970
v  68.1880 -176.6801 196.2970
v  -24.7770 -176.6801 196.2970
v  -200.9256 -203.1557 196.2969
v  -185.9159 -203.1557 196.2969
v  -43.3699 -203.1557 196.2970
v  -24.7770 -203.1557 196.2970
v  68.1880 -203.1557 196.2970
v  85.2313 -203.1557 196.2970
v  -24.7770 173.3913 196.2970
v  85.2313 -64.3477 95.9359
v  179.7455 -64.3477 95.9360
# 218 vertices

vn 0.0000 0.0000 1.0000
vn -0.0000 0.0000 -1.0000
vn -1.0000 0.0000 0.0000
vn 0.0000 -1.0000 -0.0000
vn 1.0000 0.0000 -0.0000
vn 0.0000 1.0000 -0.0000
vn -0.0000 0.0000 1.0000
vn -1.0000 0.0000 -0.0000
# 8 vertex normals

vt 0.0000 0.0000 0.0000
vt 0.0374 0.0000 0.0000
vt 0.0374 0.0703 0.0000
vt 0.0000 0.0703 0.0000
vt 0.0527 0.0000 0.0000
vt 0.0527 0.0703 0.0000
vt 0.7503 0.0000 0.0000
vt 0.7503 0.0703 0.0000
vt 0.0527 0.2497 0.0000
vt 0.0527 1.0000 0.0000
vt 0.0000 1.0000 0.0000
vt 0.0000 0.2497 0.0000
vt 0.9473 0.0703 0.0000
vt 0.9473 0.0000 0.0000
vt 1.0000 0.0000 0.0000
vt 1.0000 0.0703 0.0000
vt 0.2879 0.0000 0.0000
vt 0.2879 0.0703 0.0000
vt 0.2879 0.2497 0.0000
vt 0.2879 1.0000 0.0000
vt 0.3303 0.0703 0.0000
vt 0.3303 0.0000 0.0000
vt 0.3303 0.2497 0.0000
vt 0.3303 1.0000 0.0000
vt 0.6697 0.0000 0.0000
vt 0.7121 0.0000 0.0000
vt 0.7121 0.0703 0.0000
vt 0.6697 0.0703 0.0000
vt 0.5617 0.0703 0.0000
vt 0.5617 0.0000 0.0000
vt 0.2497 1.0000 0.0000
vt 0.2497 0.7349 0.0000
vt 1.0000 0.7349 0.0000
vt 1.0000 1.0000 0.0000
vt 0.0000 0.7349 0.0000
vt 0.0527 0.7349 0.0000
vt 0.7503 1.0000 0.0000
vt 0.7503 0.7349 0.0000
vt 0.9473 0.7349 0.0000
vt 0.9473 1.0000 0.0000
vt 0.2879 0.7349 0.0000
vt 0.7121 1.0000 0.0000
vt 0.7121 0.7349 0.0000
vt 0.3303 0.7349 0.0000
vt 0.6697 1.0000 0.0000
vt 0.6697 0.7349 0.0000
vt 0.9626 1.0000 0.0000
vt 0.9626 0.7349 0.0000
vt 0.6697 0.6896 0.0000
vt 0.4383 0.7349 0.0000
vt 0.4383 0.6896 0.0000
vt 0.2497 0.6896 0.0000
vt 1.0000 0.6896 0.0000
vt 0.0000 0.6896 0.0000
vt 0.0527 0.6896 0.0000
vt 0.7503 0.6896 0.0000
vt 0.9473 0.6896 0.0000
vt 0.2879 0.6896 0.0000
vt 0.7121 0.6896 0.0000
vt 0.3303 0.6896 0.0000
vt 0.9626 0.6896 0.0000
vt 0.2497 0.4118 0.0000
vt 1.0000 0.4118 0.0000
vt 0.0000 0.4118 0.0000
vt 0.0527 0.4118 0.0000
vt 0.7503 0.4118 0.0000
vt 0.9473 0.4118 0.0000
vt 0.2879 0.4118 0.0000
vt 0.7121 0.4118 0.0000
vt 0.3303 0.4118 0.0000
vt 0.6697 0.4118 0.0000
vt 0.9626 0.4118 0.0000
vt 0.4383 0.3686 0.0000
vt 0.6697 0.3686 0.0000
vt 0.4383 0.4118 0.0000
vt 0.2497 0.3686 0.0000
vt 1.0000 0.3686 0.0000
vt 0.0000 0.3686 0.0000
vt 0.0527 0.3686 0.0000
vt 0.7503 0.3686 0.0000
vt 0.9473 0.3686 0.0000
vt 0.2879 0.3686 0.0000
vt 0.7121 0.3686 0.0000
vt 0.3303 0.3686 0.0000
vt 0.9626 0.3686 0.0000
vt 0.6079 0.2497 0.0000
vt 0.6079 1.0000 0.0000
vt 0.5617 1.0000 0.0000
vt 0.5617 0.2497 0.0000
vt 0.3921 0.0000 0.0000
vt 0.4383 0.0000 0.0000
vt 0.4383 0.0703 0.0000
vt 0.3921 0.0703 0.0000
vt 0.6079 0.0703 0.0000
vt 0.6079 0.0000 0.0000
vt 0.9626 0.0000 0.0000
vt 0.9626 0.0703 0.0000
vt 0.6079 0.7349 0.0000
vt 0.5617 0.7349 0.0000
vt 0.3921 0.6896 0.0000
vt 0.3921 0.7349 0.0000
vt 0.0374 0.7349 0.0000
vt 0.0374 0.6896 0.0000
vt 0.5617 0.6896 0.0000
vt 0.6079 0.6896 0.0000
vt 0.5617 0.4118 0.0000
vt 0.6079 0.4118 0.0000
vt 0.3921 0.4118 0.0000
vt 0.0374 0.4118 0.0000
vt 0.0374 0.3686 0.0000
vt 0.3921 0.3686 0.0000
vt 0.6079 0.3686 0.0000
vt 0.5617 0.3686 0.0000
vt 0.4383 1.0000 0.0000
vt 0.3921 1.0000 0.0000
vt 0.9626 0.2497 0.0000
vt 0.0374 1.0000 0.0000
vt 0.2497 0.0703 0.0000
vt 1.0000 0.2497 0.0000
vt 0.2497 0.0000 0.0000
# 120 texture coords

g Box022
usemtl 01___Default
s 8
f 1/1/1 2/2/1 3/3/1 4/4/1 
s 32
f 5/1/2 6/5/2 7/6/2 8/4/2 
s 64
f 9/7/3 10/8/3 11/4/3 12/1/3 
s 2
f 13/9/4 6/10/4 5/11/4 14/12/4 
s 8
f 15/13/1 16/14/1 17/15/1 18/16/1 
s 32
f 19/17/2 20/18/2 7/6/2 6/5/2 
s 2
f 13/9/4 21/19/4 19/20/4 6/10/4 
s 32
f 22/21/2 20/18/2 19/17/2 23/22/2 
s 2
f 19/20/4 21/19/4 24/23/4 23/24/4 
s 8
f 25/25/1 26/26/1 27/27/1 28/28/1 
s 32
f 29/29/2 22/21/2 23/22/2 30/30/2 
s 16
f 31/31/5 32/32/5 33/33/5 34/34/5 
s 32
f 33/35/2 35/36/2 36/10/2 34/11/2 
s 64
f 37/37/3 38/38/3 39/33/3 40/34/3 
s 8
f 41/39/1 42/33/1 43/34/1 44/40/1 
s 32
f 35/36/2 45/41/2 46/20/2 36/10/2 
s 8
f 47/39/1 48/40/1 49/42/1 50/43/1 
s 32
f 51/24/2 46/20/2 45/41/2 52/44/2 
s 8
f 53/43/1 54/42/1 55/45/1 56/46/1 
s 32
f 57/33/2 58/34/2 59/47/2 60/48/2 
s 8
f 61/49/1 62/46/1 63/50/1 64/51/1 
s 16
f 32/32/5 65/52/5 66/53/5 33/33/5 
s 32
f 33/35/2 66/54/2 67/55/2 35/36/2 
s 64
f 38/38/3 68/56/3 69/53/3 39/33/3 
s 8
f 70/53/1 42/33/1 41/39/1 71/57/1 
s 32
f 45/41/2 35/36/2 67/55/2 72/58/2 
s 8
f 73/57/1 47/39/1 50/43/1 74/59/1 
s 32
f 75/60/2 52/44/2 45/41/2 72/58/2 
s 8
f 56/46/1 76/49/1 77/59/1 53/43/1 
s 32
f 57/33/2 60/48/2 78/61/2 79/53/2 
s 16
f 65/52/5 80/62/5 81/63/5 66/53/5 
s 32
f 66/54/2 81/64/2 82/65/2 67/55/2 
s 64
f 68/56/3 83/66/3 84/63/3 69/53/3 
s 8
f 71/57/1 85/67/1 86/63/1 70/53/1 
s 32
f 67/55/2 82/65/2 87/68/2 72/58/2 
s 8
f 73/57/1 74/59/1 88/69/1 89/67/1 
s 32
f 75/60/2 72/58/2 87/68/2 90/70/2 
s 8
f 77/59/1 76/49/1 91/71/1 92/69/1 
s 32
f 79/53/2 78/61/2 93/72/2 94/63/2 
s 8
f 95/73/1 96/74/1 97/71/1 98/75/1 
s 16
f 80/62/5 99/76/5 100/77/5 81/63/5 
s 32
f 81/64/2 100/78/2 101/79/2 82/65/2 
s 64
f 84/63/3 83/66/3 102/80/3 103/77/3 
s 8
f 86/63/1 85/67/1 104/81/1 105/77/1 
s 32
f 87/68/2 82/65/2 101/79/2 106/82/2 
s 8
f 107/81/1 89/67/1 88/69/1 108/83/1 
s 32
f 90/70/2 87/68/2 106/82/2 109/84/2 
s 8
f 110/74/1 111/83/1 92/69/1 91/71/1 
s 32
f 94/63/2 93/72/2 112/85/2 113/77/2 
s 2
f 114/86/4 115/87/4 30/88/4 116/89/4 
s 8
f 117/90/1 118/91/1 119/92/1 120/93/1 
s 32
f 121/94/2 115/95/2 122/96/2 123/97/2 
f 124/98/2 125/87/2 126/88/2 127/99/2 
s 8
f 128/100/1 129/101/1 130/102/1 131/103/1 
s 32
f 127/99/2 132/104/2 133/105/2 124/98/2 
f 132/104/2 134/106/2 135/107/2 133/105/2 
s 8
f 136/108/1 137/109/1 138/110/1 139/111/1 
s 32
f 140/112/2 135/107/2 134/106/2 141/113/2 
f 115/95/2 121/94/2 29/29/2 30/30/2 
s 8
f 142/50/1 143/114/1 144/115/1 145/101/1 
f 129/101/1 128/100/1 146/51/1 147/50/1 
f 148/75/1 149/51/1 150/100/1 151/108/1 
f 136/108/1 139/111/1 152/73/1 153/75/1 
s 2
f 24/23/4 116/89/4 30/88/4 23/24/4 
s 8
f 119/92/1 118/91/1 25/25/1 28/28/1 
s 32
f 127/99/2 126/88/2 51/24/2 52/44/2 
f 75/60/2 132/104/2 127/99/2 52/44/2 
f 132/104/2 75/60/2 90/70/2 134/106/2 
f 109/84/2 141/113/2 134/106/2 90/70/2 
s 2
f 122/47/4 115/87/4 114/86/4 154/116/4 
s 8
f 117/90/1 120/93/1 3/3/1 2/2/1 
s 32
f 59/47/2 125/87/2 124/98/2 60/48/2 
f 124/98/2 133/105/2 78/61/2 60/48/2 
f 93/72/2 78/61/2 133/105/2 135/107/2 
f 93/72/2 135/107/2 140/112/2 112/85/2 
f 11/16/2 123/97/2 122/96/2 12/15/2 
s 8
f 155/117/1 156/11/1 157/35/1 158/102/1 
f 159/35/1 160/54/1 131/103/1 130/102/1 
f 161/103/1 162/54/1 163/64/1 164/109/1 
f 165/78/1 138/110/1 137/109/1 166/64/1 
f 3/3/1 167/110/1 168/78/1 4/4/1 
s 16
f 8/16/5 100/77/5 99/76/5 169/118/5 
s 32
f 8/4/2 7/6/2 101/79/2 100/78/2 
s 64
f 102/80/3 10/8/3 170/16/3 103/77/3 
s 8
f 18/16/1 105/77/1 104/81/1 15/13/1 
s 32
f 101/79/2 7/6/2 20/18/2 106/82/2 
f 22/21/2 109/84/2 106/82/2 20/18/2 
s 8
f 110/74/1 28/28/1 27/27/1 111/83/1 
s 32
f 109/84/2 22/21/2 29/29/2 141/113/2 
s 8
f 171/73/1 172/111/1 120/93/1 119/92/1 
s 32
f 123/97/2 112/85/2 140/112/2 121/94/2 
f 29/29/2 121/94/2 140/112/2 141/113/2 
f 112/85/2 123/97/2 11/16/2 113/77/2 
s off
f 173/101/6 174/102/6 175/102/6 176/101/6 
f 177/115/3 173/101/3 176/101/3 178/115/3 
f 179/117/5 175/102/5 174/102/5 180/117/5 
f 181/109/6 182/109/6 183/108/6 184/108/6 
f 183/108/3 185/100/3 186/100/3 184/108/3 
f 185/100/4 187/103/4 188/103/4 186/100/4 
f 181/109/5 188/103/5 187/103/5 182/109/5 
f 189/111/4 190/111/4 191/110/4 192/110/4 
f 193/3/5 192/110/5 191/110/5 194/3/5 
f 195/93/6 193/3/6 194/3/6 196/93/6 
f 189/111/3 195/93/3 196/93/3 190/111/3 
f 17/15/4 16/14/4 197/14/4 198/15/4 
f 18/16/5 17/15/5 198/15/5 199/16/5 
f 18/16/5 199/16/5 200/77/5 105/77/5 
f 105/77/5 200/77/5 201/63/5 86/63/5 
f 201/63/5 202/53/5 70/53/5 86/63/5 
f 70/53/5 202/53/5 203/33/5 42/33/5 
f 42/33/5 203/33/5 204/34/5 43/34/5 
f 44/40/3 48/40/3 47/39/3 41/39/3 
f 41/39/3 47/39/3 73/57/3 71/57/3 
f 73/57/3 89/67/3 85/67/3 71/57/3 
f 104/81/3 85/67/3 89/67/3 107/81/3 
f 15/13/3 104/81/3 107/81/3 205/13/3 
f 27/27/5 206/27/5 108/83/5 111/83/5 
f 108/83/5 88/69/5 92/69/5 111/83/5 
f 88/69/5 74/59/5 77/59/5 92/69/5 
f 53/43/5 77/59/5 74/59/5 50/43/5 
f 49/42/5 54/42/5 53/43/5 50/43/5 
f 55/45/3 207/45/3 62/46/3 56/46/3 
f 56/46/3 62/46/3 61/49/3 76/49/3 
f 76/49/3 61/49/3 97/71/3 91/71/3 
f 91/71/3 97/71/3 96/74/3 110/74/3 
f 208/28/3 28/28/3 110/74/3 96/74/3 
f 209/92/6 119/92/6 28/28/6 208/28/6 
f 119/92/5 209/92/5 95/73/5 171/73/5 
f 171/73/6 95/73/6 190/111/6 172/111/6 
f 172/111/3 190/111/3 196/93/3 120/93/3 
f 196/93/6 194/3/6 3/3/6 120/93/6 
f 3/3/5 194/3/5 191/110/5 167/110/5 
f 103/78/6 168/78/6 167/110/6 191/110/6 
f 103/78/3 170/4/3 4/4/3 168/78/3 
f 1/1/3 4/4/3 170/4/3 210/1/3 
f 211/2/4 2/2/4 1/1/4 210/1/4 
f 212/90/4 117/90/4 2/2/4 211/2/4 
f 118/91/4 117/90/4 212/90/4 213/91/4 
f 213/91/4 214/25/4 25/25/4 118/91/4 
f 214/25/4 215/26/4 26/26/4 25/25/4 
f 176/101/3 145/101/3 144/115/3 178/115/3 
f 142/50/4 145/101/4 176/101/4 63/50/4 
f 143/114/5 142/50/5 63/50/5 216/114/5 
f 151/108/3 150/100/3 185/100/3 183/108/3 
f 98/75/4 148/75/4 151/108/4 183/108/4 
f 149/51/5 148/75/5 98/75/5 64/51/5 
f 149/51/6 64/51/6 185/100/6 150/100/6 
f 156/11/3 40/11/3 39/35/3 157/35/3 
f 39/35/4 175/102/4 158/102/4 157/35/4 
f 179/117/5 155/117/5 158/102/5 175/102/5 
f 84/64/3 163/64/3 162/54/3 69/54/3 
f 163/64/4 84/64/4 182/109/4 164/109/4 
f 187/103/5 161/103/5 164/109/5 182/109/5 
f 69/54/6 162/54/6 161/103/6 187/103/6 
f 160/54/3 159/35/3 39/35/3 69/54/3 
f 69/54/4 187/103/4 131/103/4 160/54/4 
f 131/103/4 187/103/4 185/100/4 128/100/4 
f 146/51/4 128/100/4 185/100/4 64/51/4 
f 146/51/5 64/51/5 63/50/5 147/50/5 
f 176/101/6 129/101/6 147/50/6 63/50/6 
f 129/101/6 176/101/6 175/102/6 130/102/6 
f 159/35/6 130/102/6 175/102/6 39/35/6 
f 103/78/3 165/78/3 166/64/3 84/64/3 
f 191/110/4 138/110/4 165/78/4 103/78/4 
f 191/110/4 190/111/4 139/111/4 138/110/4 
f 139/111/4 190/111/4 95/73/4 152/73/4 
f 152/73/5 95/73/5 98/75/5 153/75/5 
f 98/75/6 183/108/6 136/108/6 153/75/6 
f 183/108/6 182/109/6 137/109/6 136/108/6 
f 182/109/6 84/64/6 166/64/6 137/109/6 
s 2
f 12/34/4 122/47/4 154/116/4 9/119/4 
s 16
f 14/120/5 5/15/5 8/16/5 169/118/5 
s 2
f 214/22/4 24/23/4 21/19/4 215/17/4 
s 16
f 204/11/5 203/35/5 32/32/5 31/31/5 
s 64
f 38/38/3 37/37/3 58/11/3 57/35/3 
s 16
f 202/54/5 65/52/5 32/32/5 203/35/5 
s 64
f 57/35/3 79/54/3 68/56/3 38/38/3 
s 16
f 202/54/5 201/64/5 80/62/5 65/52/5 
s 64
f 83/66/3 68/56/3 79/54/3 94/64/3 
s 16
f 99/76/5 80/62/5 201/64/5 200/78/5 
s 64
f 102/80/3 83/66/3 94/64/3 113/78/3 
s 2
f 114/86/4 116/89/4 213/30/4 212/95/4 
f 213/30/4 116/89/4 24/23/4 214/22/4 
f 114/86/4 212/95/4 211/96/4 154/116/4 
s 64
f 102/80/3 113/78/3 11/4/3 10/8/3 
s off
f 26/27/5 215/27/5 206/27/5 27/27/5 
f 107/81/4 108/83/4 217/83/4 218/81/4 
f 215/17/5 21/19/5 217/19/5 108/17/5 
f 13/9/1 218/9/1 217/19/1 21/19/1 
f 15/13/3 205/13/3 197/13/3 16/13/3 
s 1
f 199/107/2 205/112/2 107/33/2 200/57/2 
f 199/107/2 198/34/2 197/15/2 205/112/2 
s off
f 99/12/1 218/9/1 13/9/1 14/12/1 
f 107/33/4 218/33/4 99/57/4 200/57/4 
f 177/115/7 180/117/7 174/102/7 173/101/7 
f 186/100/7 188/103/7 181/109/7 184/108/7 
f 193/3/7 195/93/7 189/111/7 192/110/7 
f 98/75/7 97/71/7 61/49/7 64/51/7 
f 207/45/7 216/91/7 63/50/7 62/46/7 
f 209/92/7 208/28/7 96/74/7 95/73/7 
f 156/11/6 155/117/6 179/117/6 37/37/6 
f 37/37/6 179/117/6 180/117/6 177/115/6 
f 51/24/6 37/37/6 177/115/6 207/45/6 
f 216/114/6 207/45/6 177/115/6 143/114/6 
f 143/114/6 177/115/6 178/115/6 144/115/6 
f 48/40/6 51/24/6 207/45/6 49/42/6 
f 54/42/6 49/42/6 207/45/6 55/45/6 
f 31/31/6 51/24/6 48/40/6 43/34/6 
f 48/40/6 44/40/6 43/34/6 
f 43/34/6 204/34/6 31/31/6 
f 36/10/6 51/24/6 31/31/6 34/34/6 
f 36/10/6 46/20/6 51/24/6 
f 125/87/6 37/37/6 51/24/6 126/88/6 
f 37/37/6 125/87/6 59/47/6 58/34/6 
f 40/34/6 156/11/6 37/37/6 
f 210/1/4 9/7/4 154/116/4 211/2/4 
f 170/16/8 10/8/8 9/7/8 210/1/8 
# 213 polygons - 4 triangles

#
# object Box020
#

v  216.4771 173.3913 220.0844
v  -216.4771 173.3913 220.0844
v  -216.4772 173.3913 -221.4126
v  216.4771 173.3913 -221.4125
v  -216.4772 203.1557 -221.4126
v  -216.4771 203.1557 220.0844
v  216.4771 203.1557 220.0844
v  216.4771 203.1557 -221.4125
# 8 vertices

vn 0.0000 -1.0000 -0.0000
vn 0.0000 1.0000 -0.0000
vn 0.0000 0.0000 1.0000
vn 1.0000 0.0000 -0.0000
vn -0.0000 0.0000 -1.0000
vn -1.0000 0.0000 0.0000
# 6 vertex normals

vt 0.0000 0.0000 0.0000
vt 1.0000 0.0000 0.0000
vt 1.0000 1.0000 0.0000
vt 0.0000 1.0000 0.0000
# 4 texture coords

g Box020
usemtl 01___Default
s 2
f 219/121/9 220/122/9 221/123/9 222/124/9 
s 4
f 223/124/10 224/121/10 225/122/10 226/123/10 
s 8
f 224/124/11 220/121/11 219/122/11 225/123/11 
s 16
f 225/124/12 219/121/12 222/122/12 226/123/12 
s 32
f 226/124/13 222/121/13 221/122/13 223/123/13 
s 64
f 223/124/14 221/121/14 220/122/14 224/123/14 
# 6 polygons

