# 3ds Max Wavefront OBJ Exporter v0.97b - (c)2007 guruware
# File Created: 02.04.2015 18:07:24

mtllib Elec box OBJ 2.mtl

#
# object electricity_box_
#

v  0.0000 -0.1030 21.7075
v  0.0000 97.1709 21.7075
v  -0.0000 97.1709 98.0302
v  -0.0000 -0.1030 98.0302
v  -23.9443 -0.1030 21.7075
v  -23.9444 -0.1030 98.0302
v  -23.9444 97.1709 98.0302
v  -23.9443 97.1709 21.7075
v  -2.9699 -6.6011 24.6775
v  -2.9699 -6.6011 95.0602
v  -20.9744 -6.6011 95.0602
v  -20.9744 -6.6011 24.6775
v  -2.9699 -0.1030 95.0602
v  -2.9699 -0.1030 24.6775
v  -20.9744 -0.1030 95.0602
v  -20.9744 -0.1030 24.6775
# 16 vertices

vn 1.0000 0.0000 0.0000
vn -1.0000 -0.0000 -0.0000
vn 0.0000 -1.0000 0.0000
vn -0.0000 0.0000 1.0000
vn -0.0000 1.0000 -0.0000
vn 0.0000 0.0000 -1.0000
# 6 vertex normals

vt 0.3964 0.0020 0.0000
vt 0.3964 0.5047 0.0000
vt 0.0020 0.5047 0.0000
vt 0.0020 0.0020 0.0000
vt 0.9157 0.0020 0.0000
vt 0.9157 0.3964 0.0000
vt 0.4130 0.3964 0.0000
vt 0.4130 0.0020 0.0000
vt 0.3666 0.6143 0.0000
vt 0.0029 0.6177 0.0000
vt 0.0020 0.5247 0.0000
vt 0.3657 0.5213 0.0000
vt 0.4130 0.4130 0.0000
vt 0.9157 0.4130 0.0000
vt 0.9157 0.5367 0.0000
vt 0.4130 0.5367 0.0000
vt 0.4130 0.8174 0.0000
vt 0.8074 0.8214 0.0000
vt 0.8087 0.6976 0.0000
vt 0.4143 0.6936 0.0000
vt 0.4130 0.5533 0.0000
vt 0.9157 0.5533 0.0000
vt 0.9157 0.6771 0.0000
vt 0.4130 0.6771 0.0000
vt 0.8077 0.9617 0.0000
vt 0.4132 0.9625 0.0000
vt 0.4286 0.9471 0.0000
vt 0.7923 0.9464 0.0000
vt 0.4130 0.8387 0.0000
vt 0.4284 0.8540 0.0000
vt 0.8074 0.8379 0.0000
vt 0.7921 0.8533 0.0000
vt 0.0020 0.9980 0.0000
vt 0.0020 0.6343 0.0000
vt 0.0356 0.6343 0.0000
vt 0.0356 0.9980 0.0000
vt 0.9323 0.5060 0.0000
vt 0.9323 0.4130 0.0000
vt 0.9659 0.4130 0.0000
vt 0.9659 0.5060 0.0000
vt 0.9659 0.0020 0.0000
vt 0.9659 0.3657 0.0000
vt 0.9323 0.3657 0.0000
vt 0.9323 0.0020 0.0000
vt 0.9658 0.5533 0.0000
vt 0.9658 0.6464 0.0000
vt 0.9323 0.6464 0.0000
vt 0.9323 0.5533 0.0000
# 48 texture coords

g electricity_box_
usemtl Material__3
s 2
f 1/1/1 2/2/1 3/3/1 4/4/1 
s 4
f 5/5/2 6/6/2 7/7/2 8/8/2 
s 8
f 9/9/3 10/10/3 11/11/3 12/12/3 
s 16
f 4/13/4 3/14/4 7/15/4 6/16/4 
s 32
f 3/17/5 2/18/5 8/19/5 7/20/5 
s 64
f 2/21/6 1/22/6 5/23/6 8/24/6 
s off
f 1/25/3 4/26/3 13/27/3 14/28/3 
f 4/26/3 6/29/3 15/30/3 13/27/3 
f 6/29/3 5/31/3 16/32/3 15/30/3 
f 5/31/3 1/25/3 14/28/3 16/32/3 
f 14/33/1 13/34/1 10/35/1 9/36/1 
f 13/37/4 15/38/4 11/39/4 10/40/4 
f 15/41/2 16/42/2 12/43/2 11/44/2 
f 16/45/6 14/46/6 9/47/6 12/48/6 
# 14 polygons

