# 3ds Max Wavefront OBJ Exporter v0.97b - (c)2007 guruware
# File Created: 02.04.2015 18:21:52

mtllib street cone.mtl

#
# object street_cone_
#

v  61.6694 -5.9157 -31.3441
v  52.3611 -5.9157 -47.4666
v  44.3020 69.7986 -33.5078
v  45.5512 69.7986 -31.3441
v  33.7444 -5.9157 -47.4666
v  41.8035 69.7986 -33.5078
v  24.4361 -5.9157 -31.3441
v  40.5543 69.7986 -31.3441
v  33.7444 -5.9157 -15.2216
v  41.8035 69.7986 -29.1804
v  52.3611 -5.9157 -15.2216
v  44.3020 69.7986 -29.1804
v  33.7444 -9.1307 -15.2216
v  24.4361 -9.1307 -31.3441
v  33.7444 -9.1307 -47.4666
v  61.6694 -9.1307 -31.3441
v  52.3611 -9.1307 -47.4666
v  52.3611 -9.1307 -15.2216
v  55.3912 -5.9157 -52.7150
v  67.7297 -5.9157 -31.3441
v  67.7297 -9.1307 -31.3441
v  55.3912 -9.1307 -52.7150
v  55.3912 -5.9157 -9.9732
v  55.3912 -9.1307 -9.9732
v  30.7142 -5.9157 -9.9732
v  30.7142 -9.1307 -9.9732
v  18.3757 -5.9157 -31.3441
v  18.3757 -9.1307 -31.3441
v  30.7142 -5.9157 -52.7150
v  30.7142 -9.1307 -52.7150
# 30 vertices

vn 0.9781 0.2082 0.0000
vn 0.4890 0.2082 -0.8470
vn -0.4890 0.2082 -0.8470
vn -0.9781 0.2082 0.0000
vn -0.9781 0.2082 -0.0000
vn -0.4890 0.2082 0.8470
vn 0.4890 0.2082 0.8470
vn 0.0000 -1.0000 -0.0000
vn 0.0000 1.0000 -0.0000
vn 0.8660 0.0000 -0.5000
vn 0.8660 0.0000 0.5000
vn 0.0000 0.0000 1.0000
vn -0.8660 0.0000 0.5000
vn -0.8660 0.0000 -0.5000
vn 0.0000 0.0000 -1.0000
vn -0.0000 1.0000 -0.0000
# 16 vertex normals

vt 0.7709 0.2879 0.0000
vt 0.8778 0.2878 0.0000
vt 0.8317 0.7302 0.0000
vt 0.8173 0.7302 0.0000
vt 0.2903 0.2901 0.0000
vt 0.3972 0.2878 0.0000
vt 0.3604 0.7311 0.0000
vt 0.3460 0.7314 0.0000
vt 0.5306 0.2888 0.0000
vt 0.6375 0.2878 0.0000
vt 0.5954 0.7306 0.0000
vt 0.5811 0.7307 0.0000
vt 0.6507 0.2878 0.0000
vt 0.7577 0.2881 0.0000
vt 0.7104 0.7303 0.0000
vt 0.6961 0.7303 0.0000
vt 0.8910 0.2878 0.0000
vt 0.9980 0.2878 0.0000
vt 0.9517 0.7302 0.0000
vt 0.9373 0.7302 0.0000
vt 0.4104 0.2892 0.0000
vt 0.5174 0.2878 0.0000
vt 0.4767 0.7307 0.0000
vt 0.4624 0.7309 0.0000
vt 0.0652 0.3472 0.0000
vt 0.0358 0.4501 0.0000
vt 0.1101 0.5270 0.0000
vt 0.2433 0.3982 0.0000
vt 0.2139 0.5010 0.0000
vt 0.1690 0.3213 0.0000
vt 0.3142 0.0261 0.0000
vt 0.3003 0.0296 0.0000
vt 0.2903 0.0193 0.0000
vt 0.3082 0.0020 0.0000
vt 0.2942 0.0055 0.0000
vt 0.3181 0.0123 0.0000
vt 0.0016 0.9172 0.0000
vt 0.1676 0.9172 0.0000
vt 0.1676 0.9388 0.0000
vt 0.0016 0.9388 0.0000
vt 0.3336 0.9172 0.0000
vt 0.3336 0.9388 0.0000
vt 0.4996 0.9172 0.0000
vt 0.4996 0.9388 0.0000
vt 0.6656 0.9172 0.0000
vt 0.6656 0.9388 0.0000
vt 0.8316 0.9172 0.0000
vt 0.8316 0.9388 0.0000
vt 0.9976 0.9172 0.0000
vt 0.9976 0.9388 0.0000
vt 0.2139 0.2152 0.0000
vt 0.2433 0.1124 0.0000
vt 0.2771 0.1039 0.0000
vt 0.2381 0.2402 0.0000
vt 0.1690 0.0355 0.0000
vt 0.1785 0.0020 0.0000
vt 0.0652 0.0614 0.0000
vt 0.0410 0.0364 0.0000
vt 0.0358 0.1643 0.0000
vt 0.0020 0.1727 0.0000
vt 0.1101 0.2412 0.0000
vt 0.1006 0.2746 0.0000
vt 0.2381 0.5261 0.0000
vt 0.2771 0.3898 0.0000
vt 0.1006 0.5605 0.0000
vt 0.0020 0.4585 0.0000
vt 0.0410 0.3222 0.0000
vt 0.1785 0.2878 0.0000
# 68 texture coords

g street_cone_
usemtl Material__2
s 8
f 1/1/1 2/2/2 3/3/2 4/4/1 
f 2/5/2 5/6/3 6/7/3 3/8/2 
f 5/9/3 7/10/4 8/11/5 6/12/3 
f 7/13/4 9/14/6 10/15/6 8/16/5 
f 9/17/6 11/18/7 12/19/7 10/20/6 
f 11/21/7 1/22/1 4/23/1 12/24/7 
s 1
f 13/25/8 14/26/8 15/27/8 16/28/8 
f 15/27/8 17/29/8 16/28/8 
f 18/30/8 13/25/8 16/28/8 
f 3/31/9 6/32/9 8/33/9 12/34/9 
f 8/33/9 10/35/9 12/34/9 
f 4/36/9 3/31/9 12/34/9 
s off
f 19/37/10 20/38/10 21/39/10 22/40/10 
f 20/38/11 23/41/11 24/42/11 21/39/11 
f 23/41/12 25/43/12 26/44/12 24/42/12 
f 25/43/13 27/45/13 28/46/13 26/44/13 
f 27/45/14 29/47/14 30/48/14 28/46/14 
f 29/47/15 19/49/15 22/50/15 30/48/15 
f 2/51/16 1/52/16 20/53/16 19/54/16 
f 1/52/9 11/55/9 23/56/9 20/53/9 
f 11/55/9 9/57/9 25/58/9 23/56/9 
f 9/57/16 7/59/16 27/60/16 25/58/16 
f 7/59/9 5/61/9 29/62/9 27/60/9 
f 5/61/9 2/51/9 19/54/9 29/62/9 
f 16/28/8 17/29/8 22/63/8 21/64/8 
f 17/29/8 15/27/8 30/65/8 22/63/8 
f 15/27/8 14/26/8 28/66/8 30/65/8 
f 14/26/8 13/25/8 26/67/8 28/66/8 
f 13/25/8 18/30/8 24/68/8 26/67/8 
f 18/30/8 16/28/8 21/64/8 24/68/8 
# 26 polygons - 4 triangles

