# 3ds Max Wavefront OBJ Exporter v0.97b - (c)2007 guruware
# File Created: 27.03.2015 13:18:27

mtllib Road Straight OBJ.mtl

#
# object ROAD__Plain003
#

v  26.7761 0.0000 -16.7878
v  21.4209 0.0000 -16.7878
v  21.4209 0.0000 -40.0000
v  26.7762 0.0000 -40.0000
v  -21.4209 0.0000 -16.7878
v  -21.4209 0.0000 -40.0000
v  -26.7761 0.0000 -16.7878
v  -26.7761 0.0000 -40.0000
v  21.4209 10.6772 -40.0000
v  21.4209 10.6772 -16.7878
v  28.4626 9.8945 -16.7878
v  28.4626 9.8945 -40.0000
v  -21.4209 8.0051 -40.0000
v  -21.4209 8.0051 -16.7878
v  21.4209 8.0051 -16.7878
v  21.4209 8.0051 -40.0000
v  -28.4625 9.8945 -40.0000
v  -28.4625 9.8945 -16.7878
v  -21.4209 10.6772 -16.7878
v  -21.4209 10.6772 -40.0000
v  26.7762 8.0051 -40.0000
v  -26.7761 8.0051 -40.0000
v  -29.1611 0.0000 -16.7878
v  -29.1611 0.0000 -40.0000
v  -26.7762 0.0000 40.0000
v  -21.4209 0.0000 40.0000
v  -21.4209 8.0051 40.0000
v  -26.7762 8.0051 40.0000
v  21.4209 0.0000 40.0000
v  21.4209 8.0051 40.0000
v  26.7761 0.0000 40.0000
v  26.7761 8.0051 40.0000
v  29.1611 0.0000 16.1815
v  28.4625 9.8945 16.1815
v  28.4625 9.8945 40.0000
v  29.1611 0.0000 40.0000
v  26.7761 0.0000 16.1815
v  29.1611 0.0000 -40.0000
v  21.4209 10.6772 40.0000
v  -28.4626 9.8945 40.0000
v  -29.1611 0.0000 40.0000
v  -21.4209 10.6772 40.0000
v  -21.4209 8.0051 16.1815
v  -21.4209 10.6772 16.1815
v  21.4209 0.0000 16.1815
v  -21.4209 0.0000 16.1815
v  -26.7761 0.0000 16.1815
v  21.4209 10.6772 16.1815
v  21.4209 8.0051 16.1815
v  -28.4626 9.8945 16.1815
v  -29.1611 0.0000 16.1815
v  28.4496 -0.0630 14.7956
v  27.9529 9.3348 14.7956
v  27.9529 9.3348 16.1815
v  28.4496 -0.0630 16.1815
v  26.7761 0.0000 14.7956
v  29.1611 0.0000 14.7956
v  -22.1346 8.0051 14.7956
v  -21.9000 10.0845 14.7956
v  -21.9000 10.0845 16.1815
v  -22.1346 8.0051 16.1815
v  26.7761 0.0000 -15.7390
v  21.4209 0.0000 -15.7390
v  -21.4209 0.0000 -15.7390
v  -26.7761 0.0000 -15.7390
v  21.9000 10.0845 -15.7390
v  27.9529 9.3348 -15.7390
v  27.9529 9.3348 -16.7878
v  21.9000 10.0845 -16.7878
v  -21.4209 8.0051 -15.7390
v  21.4209 8.0051 -15.7390
v  -27.9529 9.3348 -15.7390
v  -21.9000 10.0845 -15.7390
v  -21.9000 10.0845 -16.7878
v  -27.9529 9.3348 -16.7878
v  -28.4496 -0.0630 -15.7390
v  -28.4496 -0.0630 -16.7878
v  22.1346 8.0051 -15.7390
v  22.1346 8.0051 -16.7878
v  -29.1611 0.0000 -15.7390
v  29.1611 0.0000 -16.7878
v  28.4496 -0.0630 -16.7878
v  28.4496 -0.0630 -15.7390
v  29.1611 0.0000 -15.7390
v  -22.1346 8.0051 -16.7878
v  -22.1346 8.0051 -15.7390
v  21.4209 0.0000 14.7956
v  -21.4209 0.0000 14.7956
v  -26.7761 0.0000 14.7956
v  21.4209 10.6772 14.7956
v  28.4625 9.8945 14.7956
v  28.4626 9.8945 -15.7390
v  21.4209 10.6772 -15.7390
v  -21.4209 8.0051 14.7956
v  21.4209 8.0051 14.7956
v  -28.4626 9.8945 14.7956
v  -21.4209 10.6772 14.7956
v  -21.4209 10.6772 -15.7390
v  -28.4625 9.8945 -15.7390
v  -29.1611 0.0000 14.7956
v  21.9000 10.0845 16.1815
v  21.9000 10.0845 14.7956
v  -27.9529 9.3348 16.1815
v  -27.9529 9.3348 14.7956
v  -28.4496 -0.0630 16.1815
v  -28.4496 -0.0630 14.7956
v  22.1346 8.0051 16.1815
v  22.1346 8.0051 14.7956
# 108 vertices

vn 0.0000 -1.0000 -0.0000
vn 0.0987 0.9951 0.0000
vn -0.0000 1.0000 0.0000
vn 0.0000 1.0000 -0.0000
vn -0.0987 0.9951 -0.0000
vn 0.0000 0.0000 -1.0000
vn -0.9969 0.0789 -0.0000
vn -0.0000 0.0000 1.0000
vn 0.9969 0.0789 0.0000
vn -1.0000 0.0000 -0.0000
vn 1.0000 0.0000 0.0000
vn -0.0000 1.0000 -0.0000
vn 0.9983 0.0591 0.0000
vn 0.9921 -0.1254 -0.0000
vn 0.1099 0.9939 0.0000
vn -0.1099 0.9939 -0.0000
vn -0.9983 0.0591 -0.0000
vn -0.9921 -0.1254 -0.0000
vn 0.9921 -0.1254 0.0000
vn -0.1099 0.9939 0.0000
vn -0.0789 0.9969 -0.0000
vn 0.0000 -0.0000 1.0000
vn 0.0789 0.9969 0.0000
vn -0.0000 -0.0000 -1.0000
# 24 vertex normals

vt 0.3730 0.4102 0.0000
vt 0.3730 0.3764 0.0000
vt 0.5038 0.3764 0.0000
vt 0.5038 0.4102 0.0000
vt 0.9255 0.1605 0.0000
vt 0.6429 0.1605 0.0000
vt 0.6429 0.0238 0.0000
vt 0.9255 0.0238 0.0000
vt 0.3730 0.1060 0.0000
vt 0.3730 0.0722 0.0000
vt 0.5038 0.0722 0.0000
vt 0.5038 0.1060 0.0000
vt 0.0475 0.5034 0.0000
vt 0.1783 0.5034 0.0000
vt 0.1783 0.5481 0.0000
vt 0.0475 0.5481 0.0000
vt 0.6449 0.9896 0.0000
vt 0.6449 0.8529 0.0000
vt 0.9275 0.8529 0.0000
vt 0.9275 0.9896 0.0000
vt 0.3218 0.2465 0.0000
vt 0.1911 0.2465 0.0000
vt 0.1911 0.2019 0.0000
vt 0.3218 0.2019 0.0000
vt 0.1359 0.1808 0.0000
vt 0.1021 0.1808 0.0000
vt 0.1021 0.1357 0.0000
vt 0.1359 0.1357 0.0000
vt 0.2705 0.8621 0.0000
vt 0.5470 0.8621 0.0000
vt 0.5470 0.9083 0.0000
vt 0.2705 0.9083 0.0000
vt 0.0881 0.1835 0.0000
vt 0.0543 0.1835 0.0000
vt 0.0543 0.1385 0.0000
vt 0.0881 0.1385 0.0000
vt 0.1726 0.1823 0.0000
vt 0.1726 0.1264 0.0000
vt 0.3033 0.1264 0.0000
vt 0.3033 0.1823 0.0000
vt 0.1390 0.6196 0.0000
vt 0.1052 0.6196 0.0000
vt 0.1052 0.5745 0.0000
vt 0.1390 0.5745 0.0000
vt 0.2656 0.9262 0.0000
vt 0.5421 0.9262 0.0000
vt 0.5421 0.9723 0.0000
vt 0.2656 0.9723 0.0000
vt 0.0920 0.6196 0.0000
vt 0.0582 0.6196 0.0000
vt 0.0582 0.5745 0.0000
vt 0.0920 0.5745 0.0000
vt 0.0365 0.2578 0.0000
vt 0.0365 0.2019 0.0000
vt 0.1707 0.2019 0.0000
vt 0.1707 0.2578 0.0000
vt 0.1873 0.4102 0.0000
vt 0.1873 0.4252 0.0000
vt 0.0531 0.4252 0.0000
vt 0.0531 0.4102 0.0000
vt 0.1466 0.1250 0.0000
vt 0.1510 0.1808 0.0000
vt 0.1021 0.1206 0.0000
vt 0.1890 0.5944 0.0000
vt 0.1890 0.5793 0.0000
vt 0.3198 0.5793 0.0000
vt 0.3198 0.5944 0.0000
vt 0.0476 0.5639 0.0000
vt 0.0920 0.5595 0.0000
vt 0.0432 0.6196 0.0000
vt 0.3730 0.0571 0.0000
vt 0.5038 0.0571 0.0000
vt 0.1496 0.5639 0.0000
vt 0.1540 0.6196 0.0000
vt 0.1052 0.5595 0.0000
vt 0.1964 0.5212 0.0000
vt 0.1964 0.5062 0.0000
vt 0.3306 0.5062 0.0000
vt 0.3306 0.5212 0.0000
vt 0.0437 0.1278 0.0000
vt 0.0881 0.1234 0.0000
vt 0.0392 0.1835 0.0000
vt 0.0531 0.3764 0.0000
vt 0.1873 0.3764 0.0000
vt 0.9255 0.4949 0.0000
vt 0.6429 0.4949 0.0000
vt 0.6429 0.3546 0.0000
vt 0.9255 0.3546 0.0000
vt 0.0531 0.1060 0.0000
vt 0.0531 0.0722 0.0000
vt 0.1873 0.0722 0.0000
vt 0.1873 0.1060 0.0000
vt 0.4801 0.2027 0.0000
vt 0.4801 0.2473 0.0000
vt 0.3459 0.2473 0.0000
vt 0.3459 0.2027 0.0000
vt 0.6442 0.5182 0.0000
vt 0.9268 0.5182 0.0000
vt 0.9268 0.6584 0.0000
vt 0.6442 0.6584 0.0000
vt 0.0475 0.4830 0.0000
vt 0.0475 0.4383 0.0000
vt 0.1817 0.4383 0.0000
vt 0.1817 0.4830 0.0000
vt 0.2367 0.3542 0.0000
vt 0.2367 0.2983 0.0000
vt 0.3708 0.2983 0.0000
vt 0.3708 0.3542 0.0000
vt 0.0263 0.7553 0.0000
vt 0.0877 0.7553 0.0000
vt 0.0877 0.7644 0.0000
vt 0.0263 0.7644 0.0000
vt 0.1134 0.7503 0.0000
vt 0.1134 0.7677 0.0000
vt 0.1044 0.7677 0.0000
vt 0.1044 0.7503 0.0000
vt 0.1977 0.5618 0.0000
vt 0.1977 0.5467 0.0000
vt 0.3318 0.5467 0.0000
vt 0.3318 0.5618 0.0000
vt 0.0531 0.0571 0.0000
vt 0.1873 0.0571 0.0000
vt 0.0482 0.7306 0.0000
vt 0.0619 0.7306 0.0000
vt 0.0619 0.7396 0.0000
vt 0.0482 0.7396 0.0000
vt 0.3671 0.4102 0.0000
vt 0.3671 0.3764 0.0000
vt 0.9255 0.1667 0.0000
vt 0.6429 0.1667 0.0000
vt 0.3671 0.1060 0.0000
vt 0.3671 0.0722 0.0000
vt 0.0746 0.8044 0.0000
vt 0.0301 0.8044 0.0000
vt 0.0301 0.7975 0.0000
vt 0.0746 0.7975 0.0000
vt 0.6449 0.8467 0.0000
vt 0.9275 0.8467 0.0000
vt 0.0301 0.7828 0.0000
vt 0.0746 0.7828 0.0000
vt 0.0746 0.7896 0.0000
vt 0.0301 0.7896 0.0000
vt 0.0792 0.6982 0.0000
vt 0.1406 0.6982 0.0000
vt 0.1406 0.7051 0.0000
vt 0.0792 0.7051 0.0000
vt 0.1194 0.8079 0.0000
vt 0.1330 0.8079 0.0000
vt 0.1330 0.8147 0.0000
vt 0.1194 0.8147 0.0000
vt 0.3671 0.0571 0.0000
vt 0.3875 0.4997 0.0000
vt 0.3875 0.4438 0.0000
vt 0.5183 0.4438 0.0000
vt 0.5183 0.4997 0.0000
vt 0.5038 0.4252 0.0000
vt 0.3730 0.4252 0.0000
vt 0.0375 0.2868 0.0000
vt 0.0375 0.2718 0.0000
vt 0.1683 0.2718 0.0000
vt 0.1683 0.2868 0.0000
vt 0.0099 0.6982 0.0000
vt 0.0713 0.6982 0.0000
vt 0.0713 0.7051 0.0000
vt 0.0099 0.7051 0.0000
vt 0.0821 0.7245 0.0000
vt 0.0821 0.7420 0.0000
vt 0.0752 0.7420 0.0000
vt 0.0752 0.7245 0.0000
vt 0.1194 0.8226 0.0000
vt 0.1330 0.8226 0.0000
vt 0.1330 0.8295 0.0000
vt 0.1194 0.8295 0.0000
vt 0.1951 0.4102 0.0000
vt 0.1951 0.3764 0.0000
vt 0.9255 0.3465 0.0000
vt 0.6429 0.3465 0.0000
vt 0.1951 0.1060 0.0000
vt 0.1951 0.0722 0.0000
vt 0.5567 0.3103 0.0000
vt 0.5567 0.3550 0.0000
vt 0.3847 0.3550 0.0000
vt 0.3847 0.3103 0.0000
vt 0.6449 0.6670 0.0000
vt 0.9275 0.6670 0.0000
vt 0.1951 0.4885 0.0000
vt 0.1951 0.4438 0.0000
vt 0.3671 0.4438 0.0000
vt 0.3671 0.4885 0.0000
vt 0.0387 0.3520 0.0000
vt 0.0387 0.2961 0.0000
vt 0.2107 0.2961 0.0000
vt 0.2107 0.3520 0.0000
vt 0.3718 0.2785 0.0000
vt 0.3718 0.2634 0.0000
vt 0.5438 0.2634 0.0000
vt 0.5438 0.2785 0.0000
vt 0.1951 0.0571 0.0000
vt 0.3167 0.1790 0.0000
vt 0.3167 0.1231 0.0000
vt 0.4887 0.1231 0.0000
vt 0.4887 0.1790 0.0000
vt 0.3671 0.4252 0.0000
vt 0.1951 0.4252 0.0000
vt 0.1846 0.2833 0.0000
vt 0.1846 0.2682 0.0000
vt 0.3566 0.2682 0.0000
vt 0.3566 0.2833 0.0000
vt 0.0755 0.8214 0.0000
vt 0.0309 0.8214 0.0000
vt 0.0309 0.8124 0.0000
vt 0.0755 0.8124 0.0000
vt 0.0309 0.8293 0.0000
vt 0.0755 0.8293 0.0000
vt 0.0755 0.8384 0.0000
vt 0.0309 0.8384 0.0000
vt 0.1037 0.7252 0.0000
vt 0.1652 0.7252 0.0000
vt 0.1652 0.7343 0.0000
vt 0.1037 0.7343 0.0000
vt 0.0266 0.7306 0.0000
vt 0.0403 0.7306 0.0000
vt 0.0403 0.7396 0.0000
vt 0.0266 0.7396 0.0000
vt 0.1115 0.8057 0.0000
vt 0.1115 0.8147 0.0000
vt 0.1063 0.8147 0.0000
vt 0.1063 0.8057 0.0000
vt 0.0854 0.7770 0.0000
vt 0.1501 0.7772 0.0000
vt 0.1468 0.7812 0.0000
vt 0.0854 0.7822 0.0000
vt 0.5059 0.1286 0.0000
vt 0.5137 0.1726 0.0000
vt 0.5102 0.1698 0.0000
vt 0.5030 0.1321 0.0000
vt 0.4987 0.1737 0.0000
vt 0.4984 0.1692 0.0000
vt 0.9322 0.6588 0.0000
vt 0.9322 0.6670 0.0000
vt 0.0475 0.0875 0.0000
vt 0.0325 0.0869 0.0000
vt 0.0359 0.0840 0.0000
vt 0.0477 0.0830 0.0000
vt 0.0386 0.0427 0.0000
vt 0.0416 0.0460 0.0000
vt 0.0945 0.0405 0.0000
vt 0.0947 0.0450 0.0000
vt 0.6402 0.6670 0.0000
vt 0.6402 0.6588 0.0000
vt 0.5014 0.2493 0.0000
vt 0.4863 0.2487 0.0000
vt 0.4898 0.2458 0.0000
vt 0.5016 0.2448 0.0000
vt 0.4925 0.2044 0.0000
vt 0.4955 0.2078 0.0000
vt 0.5483 0.2022 0.0000
vt 0.5485 0.2067 0.0000
vt 0.1024 0.8242 0.0000
vt 0.1115 0.8242 0.0000
vt 0.1115 0.8295 0.0000
vt 0.1024 0.8295 0.0000
vt 0.4860 0.4334 0.0000
vt 0.5419 0.4336 0.0000
vt 0.5390 0.4370 0.0000
vt 0.4860 0.4379 0.0000
vt 0.5497 0.4776 0.0000
vt 0.5462 0.4748 0.0000
vt 0.5347 0.4787 0.0000
vt 0.5344 0.4742 0.0000
vt 0.9322 0.8467 0.0000
vt 0.9322 0.8529 0.0000
vt 0.0370 0.4050 0.0000
vt 0.0219 0.4044 0.0000
vt 0.0254 0.4015 0.0000
vt 0.0371 0.4005 0.0000
vt 0.0281 0.3602 0.0000
vt 0.0311 0.3635 0.0000
vt 0.0839 0.3579 0.0000
vt 0.0841 0.3624 0.0000
vt 0.0945 0.8295 0.0000
vt 0.0877 0.8295 0.0000
vt 0.0877 0.8243 0.0000
vt 0.0945 0.8243 0.0000
vt 0.4970 0.1119 0.0000
vt 0.5529 0.1120 0.0000
vt 0.5500 0.1155 0.0000
vt 0.4969 0.1164 0.0000
vt 0.5607 0.1560 0.0000
vt 0.5571 0.1532 0.0000
vt 0.5457 0.1571 0.0000
vt 0.5453 0.1526 0.0000
vt 0.1330 0.7932 0.0000
vt 0.1330 0.8000 0.0000
vt 0.1278 0.8000 0.0000
vt 0.1278 0.7932 0.0000
vt 0.4794 0.3627 0.0000
vt 0.5353 0.3629 0.0000
vt 0.5324 0.3663 0.0000
vt 0.4793 0.3672 0.0000
vt 0.5431 0.4068 0.0000
vt 0.5395 0.4041 0.0000
vt 0.5281 0.4080 0.0000
vt 0.5277 0.4035 0.0000
vt 0.6402 0.8529 0.0000
vt 0.6402 0.8467 0.0000
vt 0.0381 0.5355 0.0000
vt 0.0230 0.5349 0.0000
vt 0.0265 0.5320 0.0000
vt 0.0382 0.5310 0.0000
vt 0.0292 0.4907 0.0000
vt 0.0322 0.4940 0.0000
vt 0.0850 0.4884 0.0000
vt 0.0852 0.4929 0.0000
# 314 texture coords

g ROAD__Plain003
usemtl 03___Default
s 2
f 1/1/1 2/2/1 3/3/1 4/4/1 
f 2/5/1 5/6/1 6/7/1 3/8/1 
f 5/9/1 7/10/1 8/11/1 6/12/1 
s 4
f 9/13/2 10/14/2 11/15/2 12/16/2 
f 13/17/3 14/18/3 15/19/3 16/20/4 
f 17/21/5 18/22/5 19/23/5 20/24/5 
s 8
f 4/25/6 3/26/6 16/27/6 21/28/6 
f 3/29/6 6/30/6 13/31/6 16/32/6 
f 6/33/6 8/34/6 22/35/6 13/36/6 
s 16
f 23/37/7 18/38/7 17/39/7 24/40/7 
s 32
f 25/41/8 26/42/8 27/43/8 28/44/8 
f 26/45/8 29/46/8 30/47/8 27/48/8 
f 29/49/8 31/50/8 32/51/8 30/52/8 
s 64
f 33/53/9 34/54/9 35/55/9 36/56/9 
s off
f 37/57/1 33/58/1 36/59/1 31/60/1 
f 4/25/6 21/28/6 12/61/6 38/62/6 
f 21/28/6 16/27/6 9/63/6 12/61/6 
f 15/64/10 10/65/10 9/66/10 16/67/10 
f 30/52/8 32/51/8 35/68/8 39/69/8 
f 32/51/8 31/50/8 36/70/8 35/68/8 
f 7/10/1 23/71/1 24/72/1 8/11/1 
f 25/41/8 28/44/8 40/73/8 41/74/8 
f 28/44/8 27/43/8 42/75/8 40/73/8 
f 43/76/11 44/77/11 42/78/11 27/79/11 
f 13/36/6 22/35/6 17/80/6 20/81/6 
f 22/35/6 8/34/6 24/82/6 17/80/6 
s 2
f 31/60/1 29/83/1 45/84/1 37/57/1 
f 29/85/1 26/86/1 46/87/1 45/88/1 
f 26/89/1 25/90/1 47/91/1 46/92/1 
s 4
f 39/93/2 35/94/2 34/95/2 48/96/2 
f 27/97/12 30/98/4 49/99/12 43/100/12 
f 40/101/5 42/102/5 44/103/5 50/104/5 
s 16
f 41/105/7 40/106/7 50/107/7 51/108/7 
s 64
f 52/109/13 53/110/13 54/111/13 55/112/13 
s off
f 56/113/1 57/114/1 33/115/1 37/116/1 
f 30/117/10 39/118/10 48/119/10 49/120/10 
f 25/90/1 41/121/1 51/122/1 47/91/1 
f 58/123/14 59/124/14 60/125/14 61/126/14 
s 2
f 62/127/1 63/128/1 2/2/1 1/1/1 
f 63/129/1 64/130/1 5/6/1 2/5/1 
f 64/131/1 65/132/1 7/10/1 5/9/1 
s 4
f 66/133/15 67/134/15 68/135/15 69/136/15 
f 70/137/12 71/138/12 15/19/3 14/18/3 
f 72/139/16 73/140/16 74/141/16 75/142/16 
s 16
f 76/143/17 72/144/17 75/145/17 77/146/17 
s off
f 78/147/18 66/148/18 69/149/18 79/150/18 
f 65/132/1 80/151/1 23/71/1 7/10/1 
s 64
f 38/152/9 12/153/9 11/154/9 81/155/9 
s off
f 4/4/1 38/156/1 81/157/1 1/1/1 
f 13/158/11 20/159/11 19/160/11 14/161/11 
s 64
f 82/162/13 68/163/13 67/164/13 83/165/13 
s off
f 1/166/1 81/167/1 84/168/1 62/169/1 
f 85/170/19 74/171/19 73/172/19 86/173/19 
s 2
f 56/174/1 87/175/1 63/128/1 62/127/1 
f 87/176/1 88/177/1 64/130/1 63/129/1 
f 88/178/1 89/179/1 65/132/1 64/131/1 
s 4
f 90/180/2 91/181/2 92/182/2 93/183/2 
f 94/184/3 95/185/12 71/138/12 70/137/12 
f 96/186/5 97/187/5 98/188/5 99/189/5 
s 16
f 100/190/7 96/191/7 99/192/7 80/193/7 
s off
f 95/194/10 90/195/10 93/196/10 71/197/10 
f 89/179/1 100/198/1 80/151/1 65/132/1 
s 64
f 84/199/9 92/200/9 91/201/9 57/202/9 
s off
f 62/127/1 84/203/1 57/204/1 56/174/1 
f 70/205/11 98/206/11 97/207/11 94/208/11 
s 2
f 37/57/1 45/84/1 87/175/1 56/174/1 
f 45/88/1 46/87/1 88/177/1 87/176/1 
f 46/92/1 47/91/1 89/179/1 88/178/1 
s 4
f 101/209/15 54/210/15 53/211/15 102/212/15 
f 43/100/12 49/99/12 95/185/12 94/184/3 
f 103/213/20 60/214/20 59/215/20 104/216/16 
s 16
f 105/217/17 103/218/17 104/219/17 106/220/17 
s off
f 107/221/18 101/222/18 102/223/18 108/224/18 
f 47/91/1 51/122/1 100/198/1 89/179/1 
f 33/225/21 57/226/21 52/227/21 55/228/21 
f 57/229/8 91/230/8 53/231/8 52/232/8 
f 91/233/8 90/234/8 102/235/8 53/236/8 
f 90/234/8 95/237/8 108/238/8 102/235/8 
f 95/185/4 49/99/4 107/239/4 108/240/4 
f 49/241/6 48/242/6 101/243/6 107/244/6 
f 48/242/6 34/245/6 54/246/6 101/243/6 
f 34/245/6 33/247/6 55/248/6 54/246/6 
f 43/100/4 94/184/4 58/249/4 61/250/4 
f 94/251/22 97/252/22 59/253/22 58/254/22 
f 97/252/8 96/255/8 104/256/8 59/253/8 
f 96/255/8 100/257/8 106/258/8 104/256/8 
f 100/259/23 51/260/23 105/261/23 106/262/23 
f 51/263/6 50/264/6 103/265/6 105/266/6 
f 50/264/6 44/267/6 60/268/6 103/265/6 
f 44/267/24 43/269/24 61/270/24 60/268/24 
f 15/19/4 71/138/4 78/271/4 79/272/4 
f 71/273/6 93/274/6 66/275/6 78/276/6 
f 93/274/6 92/277/6 67/278/6 66/275/6 
f 92/277/6 84/279/6 83/280/6 67/278/6 
f 84/281/21 81/282/21 82/283/21 83/284/21 
f 81/285/8 11/286/8 68/287/8 82/288/8 
f 11/286/8 10/289/8 69/290/8 68/287/8 
f 10/289/8 15/291/8 79/292/8 69/290/8 
f 23/293/23 80/294/23 76/295/23 77/296/23 
f 80/297/6 99/298/6 72/299/6 76/300/6 
f 99/298/6 98/301/6 73/302/6 72/299/6 
f 98/301/6 70/303/6 86/304/6 73/302/6 
f 70/137/4 14/18/4 85/305/4 86/306/4 
f 14/307/8 19/308/8 74/309/8 85/310/8 
f 19/308/8 18/311/8 75/312/8 74/309/8 
f 18/311/8 23/313/8 77/314/8 75/312/8 
# 106 polygons

