# 3ds Max Wavefront OBJ Exporter v0.97b - (c)2007 guruware
# File Created: 04.03.2015 17:29:49

mtllib SmallSchool_Level1.mtl

#
# object Box185
#

v  -129.6465 -248.8080 -105.9518
v  58.8164 -248.8080 -105.9518
v  58.8164 -56.5979 -105.9518
v  -129.6465 -56.5979 -105.9518
v  58.8164 -248.8081 -432.8116
v  -129.6465 -248.8081 -432.8116
v  -129.6465 -56.5979 -432.8116
v  58.8164 -56.5979 -432.8116
v  -129.6465 -248.8081 -155.9293
v  58.8164 -248.8081 -155.9294
v  -129.6465 -56.5979 -155.9293
v  -129.6465 -22.9578 -155.9294
v  -129.6465 -22.9578 -105.9518
v  58.8164 -22.9578 -105.9518
v  58.8164 -22.9578 -155.9294
v  58.8164 -56.5979 -155.9294
v  58.8164 -22.9579 -432.8116
v  -129.6465 -22.9579 -432.8116
v  -129.6465 -248.8081 -377.1403
v  58.8164 -248.8081 -377.1403
v  -129.6465 -56.5979 -377.1403
v  -129.6465 -22.9579 -377.1403
v  58.8164 -22.9579 -377.1403
v  58.8164 -56.5979 -377.1403
v  58.8164 -248.8081 -166.9049
v  -129.6465 -248.8081 -166.9049
v  -129.6465 -22.9578 -166.9049
v  58.8164 -22.9578 -166.9050
v  58.8164 -56.5979 -166.9050
v  -129.6465 -56.5979 -166.9049
v  -129.6465 -248.8081 -366.5500
v  -129.6465 -67.2157 -366.5224
v  -129.6465 -67.2157 -166.5472
v  -129.6465 -67.2157 -176.4692
v  58.8164 -248.8081 -366.5501
v  -129.6465 -22.9578 -366.5501
v  58.8164 -22.9578 -366.5501
v  58.8164 -56.5979 -366.5501
v  -129.6465 -56.5979 -366.5501
v  -129.6465 -67.2157 -356.9489
# 40 vertices

vn 0.0000 0.0000 1.0000
vn 0.0000 0.0000 -1.0000
vn 0.0000 -1.0000 -0.0000
vn -1.0000 0.0000 -0.0000
vn 0.0000 1.0000 -0.0000
vn 1.0000 0.0000 -0.0000
# 6 vertex normals

vt 0.0000 0.0000 0.0000
vt 1.0000 0.0000 0.0000
vt 1.0000 0.8511 0.0000
vt 0.0000 0.8511 0.0000
vt 1.0000 0.1529 0.0000
vt 0.0000 0.1529 0.0000
vt 0.8511 0.0000 0.0000
vt 0.8511 0.1529 0.0000
vt 0.1489 0.1529 0.0000
vt 0.1489 0.0000 0.0000
vt 1.0000 1.0000 0.0000
vt 0.0000 1.0000 0.0000
vt 1.0000 0.8297 0.0000
vt 0.0000 0.8297 0.0000
vt 0.8511 0.8297 0.0000
vt 0.8511 1.0000 0.0000
vt 0.1489 0.8297 0.0000
vt 0.1489 1.0000 0.0000
vt 0.0000 0.1865 0.0000
vt 1.0000 0.1865 0.0000
vt 0.1489 0.1865 0.0000
vt 0.8511 0.1865 0.0000
vt 0.0000 0.7973 0.0000
vt 1.0000 0.7973 0.0000
vt 0.1489 0.7973 0.0000
vt 0.8511 0.7973 0.0000
# 26 texture coords

g Box185
usemtl Material__25
s 2
f 1/1/1 2/2/1 3/3/1 4/4/1 
s 4
f 5/1/2 6/2/2 7/3/2 8/4/2 
s 8
f 2/1/3 1/2/3 9/5/3 10/6/3 
s 16
f 1/1/4 4/7/4 11/8/4 9/6/4 
s 32
f 12/6/5 13/1/5 14/2/5 15/5/5 
s 64
f 16/9/6 15/6/6 14/1/6 3/10/6 
s 2
f 4/4/1 3/3/1 14/11/1 13/12/1 
s 4
f 17/12/2 8/4/2 7/3/2 18/11/2 
s 16
f 13/2/4 12/5/4 11/8/4 4/7/4 
s 64
f 16/9/6 3/10/6 2/2/6 10/5/6 
s 8
f 19/13/3 6/11/3 5/12/3 20/14/3 
s 16
f 19/14/4 21/15/4 7/16/4 6/12/4 
s 32
f 18/12/5 22/14/5 23/13/5 17/11/5 
s 64
f 23/14/6 24/17/6 8/18/6 17/12/6 
s 16
f 21/15/4 22/13/4 18/11/4 7/16/4 
s 64
f 5/11/6 8/18/6 24/17/6 20/13/6 
s 8
f 25/19/3 10/6/3 9/5/3 26/20/3 
s 32
f 27/19/5 12/6/5 15/5/5 28/20/5 
s 64
f 29/21/6 28/19/6 15/6/6 16/9/6 
s 16
f 11/8/4 12/5/4 27/20/4 30/22/4 
s 64
f 10/5/6 25/20/6 29/21/6 16/9/6 
s off
f 31/14/4 32/15/4 21/15/4 19/14/4 
f 26/6/4 9/6/4 11/8/4 33/8/4 
f 30/22/4 34/22/4 33/8/4 11/8/4 
s 8
f 19/13/3 20/14/3 35/23/3 31/24/3 
s 32
f 22/14/5 36/23/5 37/24/5 23/13/5 
s 64
f 37/23/6 38/25/6 24/17/6 23/14/6 
s 16
f 22/13/4 21/15/4 39/26/4 36/24/4 
s 64
f 20/13/6 24/17/6 38/25/6 35/24/6 
s off
f 32/15/4 40/26/4 39/26/4 21/15/4 
s 8
f 35/23/3 25/19/3 26/20/3 31/24/3 
s 32
f 27/19/5 28/20/5 37/24/5 36/23/5 
s 64
f 29/21/6 38/25/6 37/23/6 28/19/6 
s 16
f 27/20/4 36/24/4 39/26/4 30/22/4 
s 64
f 25/20/6 35/24/6 38/25/6 29/21/6 
s off
f 39/26/4 40/26/4 34/22/4 30/22/4 
# 36 polygons

#
# object Box184
#

v  -129.6470 -248.8080 -269.8310
v  -129.6470 -248.8080 -366.5226
v  -129.6470 -67.2157 -366.5226
v  -129.6470 -67.2157 -269.8310
v  -135.5764 -242.0084 -359.7230
v  -135.5764 -242.0084 -269.8310
v  -135.5764 -74.0153 -269.8310
v  -135.5764 -74.0153 -359.7230
v  -138.5764 -248.8080 -269.8310
v  -138.5764 -248.8080 -366.5226
v  -138.5764 -248.8080 -166.9050
v  -129.6470 -248.8080 -166.9050
v  -129.6470 -67.2157 -166.9050
v  -138.5764 -67.2157 -166.9050
v  -138.5764 -67.2157 -269.8310
v  -138.5764 -67.2157 -366.5226
v  -135.5764 -242.0084 -173.7046
v  -135.5764 -74.0153 -173.7046
v  -138.5764 -242.0084 -359.7230
v  -138.5764 -242.0084 -269.8310
v  -138.5764 -242.0084 -173.7046
v  -138.5764 -74.0153 -173.7046
v  -138.5764 -74.0153 -269.8310
v  -138.5764 -74.0153 -359.7230
# 24 vertices

vn 1.0000 0.0000 -0.0000
vn -1.0000 0.0000 -0.0000
vn 0.0000 -1.0000 -0.0000
vn 0.0000 0.0000 1.0000
vn 0.0000 1.0000 -0.0000
vn 0.0000 0.0000 -1.0000
# 6 vertex normals

vt 0.5156 0.0000 0.0000
vt 1.0000 0.0000 0.0000
vt 1.0000 1.0000 0.0000
vt 0.5156 1.0000 0.0000
vt 0.0000 0.0000 0.0000
vt 0.4844 0.0000 0.0000
vt 0.4844 1.0000 0.0000
vt 0.0000 1.0000 0.0000
# 8 texture coords

g Box184
usemtl Material__25
s 2
f 41/27/7 42/28/7 43/29/7 44/30/7 
s 4
f 45/31/8 46/32/8 47/33/8 48/34/8 
s 8
f 42/31/9 41/32/9 49/33/9 50/34/9 
s 16
f 51/34/10 52/31/10 53/28/10 54/29/10 
s 32
f 55/30/11 54/34/11 53/31/11 44/27/11 
s 64
f 43/31/12 42/28/12 50/29/12 56/34/12 
s 2
f 53/34/7 52/31/7 41/27/7 44/30/7 
s 4
f 47/33/8 46/32/8 57/28/8 58/29/8 
s 8
f 41/32/9 52/28/9 51/29/9 49/33/9 
s 32
f 55/30/11 44/27/11 43/28/11 56/29/11 
s off
f 59/31/8 50/31/8 49/32/8 60/32/8 
f 61/28/8 60/32/8 49/32/8 51/28/8 
f 61/28/8 51/28/8 54/29/8 62/29/8 
f 54/29/8 55/33/8 63/33/8 62/29/8 
f 63/33/8 55/33/8 56/34/8 64/34/8 
f 56/34/8 50/31/8 59/31/8 64/34/8 
f 46/32/11 45/31/11 59/31/11 60/32/11 
f 57/28/11 46/32/11 60/32/11 61/28/11 
f 62/29/12 58/29/12 57/28/12 61/28/12 
f 62/29/9 63/33/9 47/33/9 58/29/9 
f 47/33/9 63/33/9 64/34/9 48/34/9 
f 59/31/10 45/31/10 48/34/10 64/34/10 
# 22 polygons

#
# object Box187
#

v  -191.9595 -169.0579 405.2119
v  191.9595 -169.0579 405.2119
v  191.9595 124.1794 405.2119
v  -191.9595 124.1794 405.2119
v  191.9595 -169.0579 -106.6801
v  191.9595 215.5011 -106.6801
v  -191.9595 -169.0579 -106.6801
v  -191.9595 215.5011 -106.6801
v  221.6098 119.8497 427.4162
v  -221.6100 119.8497 427.4164
v  221.6098 219.3166 -128.9814
v  -221.6100 219.3161 -128.9785
v  221.6098 151.3848 432.8114
v  -221.6100 151.3848 432.8116
v  221.6098 250.8517 -123.5862
v  -221.6100 250.8512 -123.5833
v  -195.4769 -169.0579 -111.3699
v  -195.4769 -169.0579 409.9017
v  195.4769 -169.0579 -111.3699
v  195.4769 -169.0579 409.9017
v  -195.4769 -250.8517 -111.3699
v  -195.4769 -250.8517 409.9017
v  195.4769 -250.8517 -111.3699
v  195.4769 -250.8517 409.9017
# 24 vertices

vn 0.0000 0.0000 1.0000
vn 1.0000 0.0000 -0.0000
vn 0.0000 0.0000 -1.0000
vn -1.0000 0.0000 -0.0000
vn -0.0000 -0.9815 -0.1914
vn -0.0088 -0.9844 -0.1758
vn 0.0000 -0.9857 -0.1686
vn 0.0088 -0.9844 -0.1758
vn 0.0000 -0.1686 0.9857
vn -0.0000 0.1686 -0.9857
vn 0.0000 0.9844 0.1760
vn 0.0000 1.0000 -0.0000
vn 0.0000 -1.0000 -0.0000
# 13 vertex normals

vt 0.0000 0.0000 0.0000
vt 1.0000 0.0000 0.0000
vt 1.0000 1.0000 0.0000
vt 0.0000 1.0000 0.0000
# 4 texture coords

g Box187
usemtl Material__25
s 8
f 65/35/13 66/36/13 67/37/13 68/38/13 
s 16
f 66/35/14 69/36/14 70/37/14 67/38/14 
s 32
f 69/35/15 71/36/15 72/37/15 70/38/15 
s 64
f 71/35/16 65/36/16 68/37/16 72/38/16 
s off
f 68/38/17 67/37/17 73/37/17 74/38/17 
f 67/38/18 70/37/18 75/37/18 73/38/18 
f 70/38/19 72/37/19 76/37/19 75/38/19 
f 72/38/20 68/37/20 74/37/20 76/38/20 
f 74/38/21 73/37/21 77/37/21 78/38/21 
f 73/38/14 75/37/14 79/37/14 77/38/14 
f 75/38/22 76/37/22 80/37/22 79/38/22 
f 76/38/16 74/37/16 78/37/16 80/38/16 
f 79/37/23 80/37/23 78/37/23 77/37/23 
f 65/36/24 71/35/24 81/35/24 82/36/24 
f 71/36/24 69/35/24 83/35/24 81/36/24 
f 69/36/24 66/35/24 84/35/24 83/36/24 
f 66/36/24 65/35/24 82/35/24 84/36/24 
f 82/36/16 81/35/16 85/35/16 86/36/16 
f 81/36/15 83/35/15 87/35/15 85/36/15 
f 83/36/14 84/35/14 88/35/14 87/36/14 
f 84/36/13 82/35/13 86/35/13 88/36/13 
f 87/35/25 88/35/25 86/35/25 85/35/25 
# 22 polygons

